<?xml version="1.0" encoding="utf-8"?>
<!-- Generator: Adobe Illustrator 25.2.0, SVG Export Plug-In . SVG Version: 6.00 Build 0)  -->
<svg version="1.1" id="Layer_1" xmlns="http://www.w3.org/2000/svg" xmlns:xlink="http://www.w3.org/1999/xlink" x="0px" y="0px"
	 viewBox="0 0 70 68" style="enable-background:new 0 0 70 68;" xml:space="preserve">
<style type="text/css">
	.st0{fill:#E71D4F;}
</style>
<path class="st0" d="M7.8,25.5l5.8-19.1h42.8l5.8,19.1 M56.4,46.8c-3.2,0-5.8-2.9-5.8-6.4l0,0c0-3.5,2.6-6.4,5.8-6.4
	s5.8,2.9,5.8,6.4S59.6,46.8,56.4,46.8L56.4,46.8 M13.6,46.8c-3.2,0-5.8-2.9-5.8-6.4l0,0c0-3.5,2.6-6.4,5.8-6.4s5.8,2.9,5.8,6.4
	S16.8,46.8,13.6,46.8L13.6,46.8 M61.9,4.2C61.1,1.8,59,0,56.4,0H13.6C11,0,8.9,1.8,8.1,4.2L0,29.8v34C0,66.1,1.7,68,3.9,68h3.9
	c2.1,0,3.9-1.9,3.9-4.2v-4.2h46.7v4.2c0,2.3,1.7,4.2,3.9,4.2h3.9c2.1,0,3.9-1.9,3.9-4.2v-34L61.9,4.2z"/>
</svg>
