<?xml version="1.0" encoding="utf-8"?>
<!-- Generator: Adobe Illustrator 25.2.0, SVG Export Plug-In . SVG Version: 6.00 Build 0)  -->
<svg version="1.1" id="Layer_1" xmlns="http://www.w3.org/2000/svg" xmlns:xlink="http://www.w3.org/1999/xlink" x="0px" y="0px"
	 viewBox="0 0 22 12" style="enable-background:new 0 0 22 12;" xml:space="preserve">
<style type="text/css">
	.st0{fill:#E71D4F;}
</style>
<path class="st0" d="M15,0H5L0,6v3h2c0,1.7,1.3,3,3,3s3-1.3,3-3h6c0,1.7,1.3,3,3,3s3-1.3,3-3h2V6c0-1.1-0.9-2-2-2h-2L15,0 M5.5,1.5
	h4V4h-6L5.5,1.5 M11,1.5h3.5l2,2.5H11V1.5 M5,7.5c0.8,0,1.5,0.7,1.5,1.5S5.8,10.5,5,10.5S3.5,9.8,3.5,9S4.2,7.5,5,7.5 M17,7.5
	c0.8,0,1.5,0.7,1.5,1.5s-0.7,1.5-1.5,1.5S15.5,9.8,15.5,9S16.2,7.5,17,7.5z"/>
</svg>
