<?xml version="1.0" encoding="utf-8"?>
<!-- Generator: Adobe Illustrator 25.2.0, SVG Export Plug-In . SVG Version: 6.00 Build 0)  -->
<svg version="1.1" id="Layer_1" xmlns="http://www.w3.org/2000/svg" xmlns:xlink="http://www.w3.org/1999/xlink" x="0px" y="0px"
	 viewBox="0 0 14 18" style="enable-background:new 0 0 14 18;" xml:space="preserve">
<style type="text/css">
	.st0{fill:#E71D4F;}
</style>
<path class="st0" d="M12.7,8.2c-0.2-0.3-0.5-0.6-0.8-0.8c-0.7-0.6-1.4-1-2.1-1.7C8.3,4.3,8,1.8,9,0C8,0.2,7.2,0.8,6.5,1.3
	c-2.6,2.1-3.6,5.7-2.4,8.9c0,0.1,0.1,0.2,0.1,0.3c0,0.2-0.1,0.4-0.3,0.5c-0.2,0.1-0.5,0-0.7-0.1c-0.1-0.1-0.1-0.1-0.1-0.2
	C1.9,9.3,1.7,7.3,2.5,5.6C0.8,7-0.1,9.3,0,11.5c0.1,0.5,0.1,1,0.3,1.5c0.1,0.6,0.4,1.2,0.7,1.7c1.1,1.7,2.9,3,5,3.2
	c2.1,0.3,4.4-0.1,6.1-1.6c1.8-1.7,2.5-4.3,1.5-6.6l-0.1-0.3C13.2,9,12.7,8.2,12.7,8.2 M9.5,14.5c-0.3,0.2-0.7,0.5-1.1,0.6
	c-1.1,0.4-2.2-0.2-2.9-0.8c1.2-0.3,1.9-1.2,2.1-2.1c0.2-0.8-0.1-1.5-0.3-2.2C7.2,9.3,7.2,8.6,7.5,7.9C7.7,8.3,7.9,8.7,8.1,9
	c0.8,1,2,1.4,2.2,2.8c0,0.1,0.1,0.3,0.1,0.4C10.5,13,10.1,14,9.5,14.5L9.5,14.5z"/>
</svg>
