<?xml version="1.0" encoding="utf-8"?>
<!-- Generator: Adobe Illustrator 25.2.0, SVG Export Plug-In . SVG Version: 6.00 Build 0)  -->
<svg version="1.1" id="Layer_1" xmlns="http://www.w3.org/2000/svg" xmlns:xlink="http://www.w3.org/1999/xlink" x="0px" y="0px"
	 viewBox="0 0 20 18" style="enable-background:new 0 0 20 18;" xml:space="preserve">
<style type="text/css">
	.st0{fill:#E71D4F;}
</style>
<path class="st0" d="M4,16h2v2H4V16 M10,0L0,5v13h2v-8h16v8h2V5L10,0 M6,8H2V6h4V8 M12,8H8V6h4V8 M18,8h-4V6h4V8 M4,12h2v2H4V12
	 M8,12h2v2H8V12 M8,16h2v2H8V16 M12,16h2v2h-2V16z"/>
</svg>
