<?xml version="1.0" encoding="utf-8"?>
<!-- Generator: Adobe Illustrator 25.2.0, SVG Export Plug-In . SVG Version: 6.00 Build 0)  -->
<svg version="1.1" id="Layer_1" xmlns="http://www.w3.org/2000/svg" xmlns:xlink="http://www.w3.org/1999/xlink" x="0px" y="0px"
	 viewBox="0 0 18 18" style="enable-background:new 0 0 18 18;" xml:space="preserve">
<style type="text/css">
	.st0{fill:#FFFFFF;}
	.st1{fill:#0077B5;}
</style>
<rect x="1.3" y="1.3" class="st0" width="15.4" height="15.4"/>
<path class="st1" d="M16,0c1.1,0,2,0.9,2,2v14c0,1.1-0.9,2-2,2H2c-1.1,0-2-0.9-2-2V2c0-1.1,0.9-2,2-2H16 M15.5,15.5v-5.3
	c0-1.8-1.5-3.3-3.3-3.3l0,0c-0.8,0-1.8,0.5-2.3,1.3V7.1H7.1v8.4h2.8v-4.9c0-0.8,0.6-1.4,1.4-1.4c0.8,0,1.4,0.6,1.4,1.4v4.9H15.5
	 M3.9,5.6c0.9,0,1.7-0.8,1.7-1.7l0,0c0-0.9-0.8-1.7-1.7-1.7S2.2,3,2.2,3.9l0,0C2.2,4.8,2.9,5.6,3.9,5.6 M5.3,15.5V7.1H2.5v8.4H5.3z"
	/>
</svg>
