<?xml version="1.0" encoding="utf-8"?>
<!-- Generator: Adobe Illustrator 25.2.0, SVG Export Plug-In . SVG Version: 6.00 Build 0)  -->
<svg version="1.1" id="Layer_1" xmlns="http://www.w3.org/2000/svg" xmlns:xlink="http://www.w3.org/1999/xlink" x="0px" y="0px"
	 viewBox="0 0 20 20" style="enable-background:new 0 0 20 20;" xml:space="preserve">
<style type="text/css">
	.st0{fill:#FFFFFF;}
</style>
<path class="st0" d="M17.8,0C19,0,20,1,20,2.2v15.6c0,1.2-1,2.2-2.2,2.2H2.2C1,20,0,19,0,17.8V2.2C0,1,1,0,2.2,0H17.8 M17.2,17.2
	v-5.9c0-2-1.7-3.7-3.7-3.7l0,0c-0.9,0-2,0.6-2.6,1.4V7.9H7.9v9.3H11v-5.4c0-0.9,0.7-1.6,1.6-1.6c0.9,0,1.6,0.7,1.6,1.6v5.4H17.2
	 M4.3,6.2c1,0,1.9-0.9,1.9-1.9l0,0c0-1-0.9-1.9-1.9-1.9S2.4,3.3,2.4,4.3l0,0C2.4,5.3,3.2,6.2,4.3,6.2 M5.9,17.2V7.9H2.8v9.3H5.9z"/>
</svg>
