<?xml version="1.0" encoding="utf-8"?>
<!-- Generator: Adobe Illustrator 25.2.0, SVG Export Plug-In . SVG Version: 6.00 Build 0)  -->
<svg version="1.1" id="Layer_1" xmlns="http://www.w3.org/2000/svg" xmlns:xlink="http://www.w3.org/1999/xlink" x="0px" y="0px"
	 viewBox="0 0 60 60" style="enable-background:new 0 0 60 60;" xml:space="preserve">
<style type="text/css">
	.st0{fill:#E71D4F;}
	.st1{fill:#FFFFFF;}
</style>
<g id="Management">
	<g id="XMLID_1_">
		<g>
			<path class="st0" d="M58,26.9v6.2l-3.5,0.4c-0.4,0-0.8,0.4-0.9,0.8c-0.6,3.3-1.9,6.5-3.8,9.2c-0.2,0.4-0.2,0.8,0,1.2l2.2,2.8
				L47.6,52l-2.8-2.2c-0.3-0.3-0.8-0.3-1.2,0c-2.8,1.9-5.9,3.2-9.2,3.8c-0.4,0.1-0.8,0.4-0.8,0.9L33.1,58h-6.2l-0.4-3.5
				c-0.1-0.4-0.4-0.8-0.8-0.9c-3.3-0.6-6.5-1.9-9.2-3.8c-0.4-0.2-0.8-0.2-1.2,0L12.4,52L8,47.6l2.2-2.8c0.3-0.3,0.3-0.8,0-1.2
				c-1.9-2.8-3.2-5.9-3.8-9.2c-0.1-0.4-0.4-0.8-0.8-0.8L2,33.1v-6.2l3.5-0.4c0.4-0.1,0.8-0.4,0.9-0.8c0.6-3.3,1.9-6.5,3.8-9.2
				c0.2-0.4,0.2-0.8,0-1.2L8,12.4L12.4,8l2.8,2.2c0.3,0.3,0.8,0.3,1.2,0c2.8-1.9,5.9-3.2,9.2-3.8c0.4-0.1,0.8-0.4,0.8-0.8L26.9,2
				h6.2l0.4,3.6c0,0.4,0.4,0.8,0.8,0.8c3.3,0.6,6.5,1.9,9.2,3.8c0.4,0.2,0.8,0.2,1.2,0L47.6,8l4.4,4.4l-2.2,2.8
				c-0.3,0.3-0.3,0.8,0,1.2c1.9,2.8,3.2,5.9,3.8,9.2c0.1,0.4,0.4,0.8,0.9,0.8L58,26.9z M30,46c8.8,0,16-7.2,16-16
				c0-8.8-7.2-16-16-16c-8.8,0-16,7.2-16,16S21.2,46,30,46z"/>
			<path class="st0" d="M44,30c0-7.7-6.3-14-14-14s-14,6.3-14,14s6.3,14,14,14C37.7,44,44,37.7,44,30z M46,30c0,8.8-7.2,16-16,16
				s-16-7.2-16-16s7.2-16,16-16C38.8,14,46,21.2,46,30z"/>
			<path class="st1" d="M54.5,33.6l3.5-0.4v-6.2l-3.5-0.4c-0.4-0.1-0.8-0.4-0.9-0.8c-0.6-3.3-1.9-6.5-3.8-9.2
				c-0.2-0.4-0.2-0.8,0-1.2l2.2-2.8L47.6,8l-2.8,2.2c-0.3,0.3-0.8,0.3-1.2,0c-2.8-1.9-5.9-3.2-9.2-3.8c-0.4-0.1-0.8-0.4-0.8-0.8
				L33.1,2h-6.2l-0.4,3.6c-0.1,0.4-0.4,0.8-0.8,0.8c-3.3,0.6-6.5,1.9-9.2,3.8c-0.4,0.2-0.8,0.2-1.2,0L12.4,8L8,12.4l2.2,2.8
				c0.3,0.3,0.3,0.8,0,1.2c-1.9,2.8-3.2,5.9-3.8,9.2c-0.1,0.4-0.4,0.8-0.9,0.8L2,26.9v6.2l3.6,0.4c0.4,0,0.8,0.4,0.8,0.8
				c0.6,3.3,1.9,6.5,3.8,9.2c0.2,0.4,0.2,0.8,0,1.2L8,47.6l4.4,4.4l2.8-2.2c0.3-0.3,0.8-0.3,1.2,0c2.8,1.9,5.9,3.2,9.2,3.8
				c0.4,0.1,0.8,0.4,0.8,0.9l0.4,3.5h6.2l0.4-3.5c0-0.4,0.4-0.8,0.8-0.9c3.3-0.6,6.5-1.9,9.2-3.8c0.4-0.2,0.8-0.2,1.2,0l2.8,2.2
				l4.4-4.4l-2.2-2.8c-0.3-0.3-0.3-0.8,0-1.2c1.9-2.8,3.2-5.9,3.8-9.2C53.7,33.9,54,33.6,54.5,33.6z M0,34v-8c0-0.5,0.4-0.9,0.9-1
				l3.7-0.5c0.7-3.1,1.9-6,3.6-8.7l-2.3-2.9c-0.3-0.4-0.3-1,0.1-1.3L11.6,6c0.4-0.4,0.9-0.4,1.3-0.1l2.9,2.3
				c2.7-1.7,5.6-2.9,8.7-3.6L25,0.9C25.1,0.4,25.5,0,26,0h8c0.5,0,0.9,0.4,1,0.9l0.5,3.7c3.1,0.7,6,1.9,8.7,3.6l2.9-2.3
				c0.4-0.3,1-0.3,1.3,0.1l5.7,5.7c0.4,0.4,0.4,0.9,0.1,1.3l-2.3,2.9c1.7,2.7,2.9,5.6,3.6,8.7l3.7,0.5c0.5,0.1,0.9,0.5,0.9,1v8
				c0,0.5-0.4,0.9-0.9,1l-3.7,0.5c-0.7,3.1-1.9,6-3.6,8.7l2.3,2.9c0.3,0.4,0.3,1-0.1,1.3L48.4,54c-0.4,0.4-0.9,0.4-1.3,0.1l-2.9-2.3
				c-2.6,1.7-5.6,2.9-8.7,3.6L35,59.1c-0.1,0.5-0.5,0.9-1,0.9h-8c-0.5,0-0.9-0.4-1-0.9l-0.5-3.7c-3.1-0.6-6-1.9-8.7-3.6l-2.9,2.3
				c-0.4,0.3-1,0.3-1.3-0.1L6,48.4c-0.4-0.4-0.4-0.9-0.1-1.3l2.3-2.9c-1.7-2.6-2.9-5.6-3.6-8.7L0.9,35C0.4,34.9,0,34.5,0,34z"/>
		</g>
		<g>
		</g>
	</g>
</g>
</svg>
