<?xml version="1.0" encoding="utf-8"?>
<!-- Generator: Adobe Illustrator 25.2.0, SVG Export Plug-In . SVG Version: 6.00 Build 0)  -->
<svg version="1.1" id="bike-15" xmlns="http://www.w3.org/2000/svg" xmlns:xlink="http://www.w3.org/1999/xlink" x="0px" y="0px"
	 viewBox="0 0 1005.7 605" style="enable-background:new 0 0 1005.7 605;" xml:space="preserve">
<style type="text/css">
	.st0{fill:#E71D4F;}
</style>
<path id="bike-15-bike-15" class="st0" d="M197.8,124.5c25.8,3.4,52.2,8.5,77.6,14.4C428.7,174.6,500.7,150.8,569,124
	c10.2,39.7-40.6,61.8-127.5,104.3C394.7,218.6,200.8,173.1,197.8,124.5z M1005.7,447.7c0,86.7-70.6,157.3-157.3,157.3
	c-86.8,0-157.3-70.6-157.3-157.3c0-51.9,25.3-97.8,64.2-126.5l-48.5-94.4c-16.4,10.5-31.6,22.8-45.3,36.7
	c-29.3,31.2-48.7,68-64.6,108.7c-26.9,68.7-75.6,84.4-134.4,84.4c-58.8,0-113.6,0-113.6,0s1.1-12.5-1.3-31.5l-33.6,7.6
	c0.5,4.9,0.8,9.9,0.8,14.9c0,86.7-70.6,157.3-157.3,157.3C70.6,605,0,534.4,0,447.7s70.6-157.3,157.3-157.3
	c66.4,0,123.3,41.5,146.3,99.8l33.8-7.6c-9.8-31.8-42-79.6-92.5-103.6L75.4,198.4l13.8-29c-40.2-18.8-78.5-40.1-78.5-52.9H102
	c18.5,0.6,39.6,1.9,61.8,4.1l0.4,6c3.3,53.2,94.4,98.5,270.6,134.7l11.2,2.3l24.5-11.9c85.7-41.8,147.7-72,131.2-136l-1-3.9
	c15.9-6.3,30.7-11.5,45.5-14.2l-37.2-55.6l-43.6,0.1c0,0,0,0,0,0c-9.3,0-16.8-7.5-16.8-16.8c0-9.3,7.5-16.8,16.8-16.9l41-0.1
	c1.8-2.2,4.1-4.2,6.8-5.6c10.7-5.6,23.9-1.5,29.5,9.2l61,96.3c15.8,12.1,27.1,31.7,37.2,53c33.7-12.6,70-19.5,107.6-19.5
	c33.7,0,66.9,5.4,98.5,16.2c11.4,3.9,17.6,16.3,13.7,27.8c-3.9,11.4-16.3,17.6-27.7,13.7c-27.1-9.2-55.5-13.9-84.5-13.9
	c-36.2,0-71.1,7.4-103,21l48.3,94.1c17.1-6.3,35.4-10,54.7-10C935.1,290.4,1005.7,360.9,1005.7,447.7z M264.1,447.7
	c0-1.3-0.1-2.5-0.2-3.7l-54.3,12.3c-4.1,25.3-25.9,44.6-52.3,44.6c-29.4,0-53.2-23.8-53.2-53.2c0-29.4,23.8-53.2,53.2-53.2
	c16.5,0,31.1,7.7,40.9,19.5l55.3-12.5c-17.3-35.8-53.8-60.6-96.2-60.6c-58.9,0-106.8,47.9-106.8,106.8
	c0,58.9,47.9,106.8,106.8,106.8C216.2,554.5,264.1,506.6,264.1,447.7z M955.2,447.7c0-58.9-47.9-106.8-106.8-106.8
	c-10.8,0-21.2,1.6-31,4.6l25.9,49.5c1.7-0.2,3.3-0.5,5.1-0.5c29.4,0,53.2,23.8,53.2,53.2c0,29.4-23.8,53.2-53.2,53.2
	c-29.4,0-53.2-23.8-53.2-53.2c0-11.6,3.8-22.2,10.1-31L779,366.6c-22.9,19.6-37.4,48.6-37.4,81.1c0,58.9,47.9,106.8,106.8,106.8
	C907.3,554.5,955.2,506.6,955.2,447.7z"/>
</svg>
