<?xml version="1.0" encoding="utf-8"?>
<!-- Generator: Adobe Illustrator 25.2.0, SVG Export Plug-In . SVG Version: 6.00 Build 0)  -->
<svg version="1.1" id="Layer_1" xmlns="http://www.w3.org/2000/svg" xmlns:xlink="http://www.w3.org/1999/xlink" x="0px" y="0px"
	 viewBox="0 0 30 30" style="enable-background:new 0 0 30 30;" xml:space="preserve">
<style type="text/css">
	.st0{fill:#E71D4F;}
	.st1{fill:#FFFFFF;}
</style>
<circle class="st0" cx="15" cy="15" r="15"/>
<path class="st1" d="M10.1,13.9c1.3,2.6,3.4,4.7,6,6l2-2c0.3-0.3,0.6-0.3,0.9-0.2c1,0.3,2.1,0.5,3.2,0.5c0.5,0,0.9,0.4,0.9,0.9v3.2
	c0,0.5-0.4,0.9-0.9,0.9c-8.5,0-15.4-6.9-15.4-15.4c0-0.5,0.4-0.9,0.9-0.9h3.2c0.5,0,0.9,0.4,0.9,0.9c0,1.1,0.2,2.2,0.5,3.2
	c0.1,0.3,0,0.7-0.2,0.9L10.1,13.9z"/>
</svg>
