<?xml version="1.0" encoding="utf-8"?>
<!-- Generator: Adobe Illustrator 25.2.0, SVG Export Plug-In . SVG Version: 6.00 Build 0)  -->
<svg version="1.1" id="Layer_1" xmlns="http://www.w3.org/2000/svg" xmlns:xlink="http://www.w3.org/1999/xlink" x="0px" y="0px"
	 viewBox="0 0 16.3 16.3" style="enable-background:new 0 0 16.3 16.3;" xml:space="preserve">
<style type="text/css">
	.st0{fill:#FFFFFF;}
</style>
<path class="st0" d="M3.3,7c1.3,2.6,3.4,4.7,6,6l2-2c0.3-0.3,0.6-0.3,0.9-0.2c1,0.3,2.1,0.5,3.2,0.5c0.5,0,0.9,0.4,0.9,0.9v3.2
	c0,0.5-0.4,0.9-0.9,0.9C6.9,16.3,0,9.4,0,0.9C0,0.4,0.4,0,0.9,0h3.2C4.6,0,5,0.4,5,0.9C5,2,5.2,3.1,5.5,4.1c0.1,0.3,0,0.7-0.2,0.9
	L3.3,7z"/>
</svg>
