<?xml version="1.0" encoding="utf-8"?>
<!-- Generator: Adobe Illustrator 25.2.0, SVG Export Plug-In . SVG Version: 6.00 Build 0)  -->
<svg version="1.1" id="Layer_1" xmlns="http://www.w3.org/2000/svg" xmlns:xlink="http://www.w3.org/1999/xlink" x="0px" y="0px"
	 viewBox="0 0 20 20" style="enable-background:new 0 0 20 20;" xml:space="preserve">
<style type="text/css">
	.st0{fill:#E71D4F;}
</style>
<path class="st0" d="M10,0C4.5,0,0,4.5,0,10c0,5.5,4.5,10,10,10s10-4.5,10-10S15.5,0,10,0 M13.5,6C14.3,6,15,6.7,15,7.5
	S14.3,9,13.5,9C12.7,9,12,8.3,12,7.5S12.7,6,13.5,6 M6.5,6C7.3,6,8,6.7,8,7.5S7.3,9,6.5,9S5,8.3,5,7.5S5.7,6,6.5,6 M10,15.5
	c-2.3,0-4.3-1.5-5.1-3.5h10.2C14.3,14,12.3,15.5,10,15.5z"/>
</svg>
