<?xml version="1.0" encoding="utf-8"?>
<!-- Generator: Adobe Illustrator 25.2.0, SVG Export Plug-In . SVG Version: 6.00 Build 0)  -->
<svg version="1.1" id="Layer_1" xmlns:sketch="http://www.bohemiancoding.com/sketch/ns"
	 xmlns="http://www.w3.org/2000/svg" xmlns:xlink="http://www.w3.org/1999/xlink" x="0px" y="0px" viewBox="0 0 76 76"
	 style="enable-background:new 0 0 76 76;" xml:space="preserve">
<style type="text/css">
	.st0{fill:none;stroke:#111A39;stroke-width:6;}
</style>
<desc>Created with Sketch.</desc>
<g id="Page-1" sketch:type="MSPage">
	<g id="Steering-wheel" transform="translate(1.000000, 1.000000)" sketch:type="MSLayerGroup">
		<circle id="Oval" sketch:type="MSShapeGroup" class="st0" cx="37" cy="37" r="35">
		</circle>
		<circle id="Oval_1_" sketch:type="MSShapeGroup" class="st0" cx="37" cy="37" r="30.5">
		</circle>
		<path id="Shape" sketch:type="MSShapeGroup" class="st0" d="M7.6,45.4c1.5-0.3,2.9-0.5,4.5-0.5c11.2,0,20.3,8.4,20.3,18.6
			c0,1.2-0.1,2.4-0.3,3.5"/>
		<path id="Shape_1_" sketch:type="MSShapeGroup" class="st0" d="M67.4,34.3C59.6,29,48.9,25.7,37,25.7S14.4,29,6.6,34.3"/>
		<path id="Shape_2_" sketch:type="MSShapeGroup" class="st0" d="M41.9,67c-0.2-1.1-0.3-2.4-0.3-3.5c0-10.3,9.1-18.6,20.3-18.6
			c1.6,0,3,0.1,4.5,0.5"/>
		<circle id="Oval_2_" sketch:type="MSShapeGroup" class="st0" cx="37" cy="37" r="3.4">
		</circle>
	</g>
</g>
</svg>
