<?xml version="1.0" encoding="utf-8"?>
<!-- Generator: Adobe Illustrator 25.2.0, SVG Export Plug-In . SVG Version: 6.00 Build 0)  -->
<svg version="1.1" id="Layer_1" xmlns="http://www.w3.org/2000/svg" xmlns:xlink="http://www.w3.org/1999/xlink" x="0px" y="0px"
	 viewBox="0 0 70 68" style="enable-background:new 0 0 70 68;" xml:space="preserve">
<style type="text/css">
	.st0{fill:#111A39;}
</style>
<path class="st0" d="M63.2,51c3.8,0,6.8-3,6.8-6.8V6.8C70,3,66.9,0,63.2,0h-36C28.4,2.1,29,4.4,29,6.8h34.1v37.4H32.4V51 M46.1,17
	v6.8H25.6V68h-6.8V47.6H12V68H5.1V40.8H0v-17C0,20,3.1,17,6.8,17H46.1 M22.2,6.8c0,3.8-3.1,6.8-6.8,6.8s-6.8-3-6.8-6.8
	s3-6.8,6.8-6.8S22.2,3,22.2,6.8z"/>
</svg>
