<?xml version="1.0" encoding="utf-8"?>
<!-- Generator: Adobe Illustrator 25.2.0, SVG Export Plug-In . SVG Version: 6.00 Build 0)  -->
<svg version="1.1" id="Layer_1" xmlns="http://www.w3.org/2000/svg" xmlns:xlink="http://www.w3.org/1999/xlink" x="0px" y="0px"
	 viewBox="0 0 20 16" style="enable-background:new 0 0 20 16;" xml:space="preserve">
<style type="text/css">
	.st0{fill:#E71D4F;}
</style>
<path class="st0" d="M3,0v7.3c-1.8,0.6-3,2.3-3,4.2C0,14,2,16,4.5,16c2.3,0,4.2-1.7,4.5-4h4.2c-0.1,0.3-0.2,0.7-0.2,1
	c0,1.7,1.3,3,3,3s3-1.3,3-3c0-0.3-0.1-0.7-0.2-1H20V9c0-1.1-0.9-2-2-2h-5l-1.4-7H3 M5,2h5l1,5v3H8.7C8.2,8.4,6.7,7.2,5,7V2 M4.5,9.2
	c1.2,0,2.2,1,2.2,2.2s-1,2.2-2.2,2.2s-2.2-1-2.2-2.2S3.3,9.2,4.5,9.2 M16,11.5c0.8,0,1.5,0.7,1.5,1.5s-0.7,1.5-1.5,1.5
	s-1.5-0.7-1.5-1.5S15.2,11.5,16,11.5z"/>
</svg>
