<?xml version="1.0" encoding="utf-8"?>
<!-- Generator: Adobe Illustrator 25.2.0, SVG Export Plug-In . SVG Version: 6.00 Build 0)  -->
<svg version="1.1" id="Layer_1" xmlns="http://www.w3.org/2000/svg" xmlns:xlink="http://www.w3.org/1999/xlink" x="0px" y="0px"
	 viewBox="0 0 18 16" style="enable-background:new 0 0 18 16;" xml:space="preserve">
<style type="text/css">
	.st0{fill:#55ACEE;}
</style>
<path class="st0" d="M18,1.9c-0.7,0.3-1.4,0.5-2.1,0.6c0.8-0.5,1.3-1.3,1.6-2.2c-0.7,0.5-1.5,0.8-2.3,1C14.5,0.5,13.5,0,12.4,0
	c-2,0-3.7,1.8-3.7,4c0,0.3,0,0.6,0.1,0.9C5.8,4.8,3.1,3.2,1.3,0.7C0.9,1.3,0.8,2,0.8,2.8c0,1.4,0.6,2.6,1.6,3.4
	c-0.6,0-1.2-0.2-1.7-0.5c0,0,0,0,0,0c0,2,1.3,3.6,3,4C3.4,9.7,3,9.8,2.7,9.8c-0.2,0-0.5,0-0.7-0.1c0.5,1.6,1.8,2.8,3.4,2.8
	c-1.3,1.1-2.8,1.7-4.6,1.7c-0.3,0-0.6,0-0.9-0.1C1.6,15.3,3.6,16,5.7,16c6.8,0,10.5-6.2,10.5-11.5c0-0.2,0-0.3,0-0.5
	C16.9,3.4,17.5,2.7,18,1.9z"/>
</svg>
