<?xml version="1.0" encoding="utf-8"?>
<!-- Generator: Adobe Illustrator 25.2.0, SVG Export Plug-In . SVG Version: 6.00 Build 0)  -->
<svg version="1.1" id="Layer_1" xmlns="http://www.w3.org/2000/svg" xmlns:xlink="http://www.w3.org/1999/xlink" x="0px" y="0px"
	 viewBox="0 0 342.6 138.9" style="enable-background:new 0 0 342.6 138.9;" xml:space="preserve">
<style type="text/css">
	.st0{fill:none;}
	.st1{fill:#FFFFFF;}
	.st2{fill:none;stroke:#FFFFFF;stroke-width:4.2971;stroke-miterlimit:10;}
	.st3{fill:none;stroke:#FFFFFF;stroke-width:5.7295;stroke-miterlimit:10;}
</style>
<g id="Logo_1_">
	<g>
		<rect x="56.9" y="48.9" class="st0" width="285.7" height="73.5"/>
		<path class="st1" d="M113.1,48.9l-29.9,73l-29.7-73h23.6l6.3,21.5l7-21.5H113.1z"/>
		<path class="st1" d="M143.6,67v20.2c-1.3-0.7-2.4-1.1-3.6-1.1c-3.4,0-5.1,2.6-5.1,7.9v23.8h-18.9V90.4c0-7.3,2-13.1,5.9-17.4
			c4-4.3,9.3-6.5,15.9-6.5C139.3,66.4,141.2,66.7,143.6,67z"/>
		<path class="st1" d="M149.1,68.3h18.7v28.4c0,2.9,1.1,4.3,3.6,4.3c2.3,0,3.6-1.4,3.6-4.3V68.3h18.7v28c0,6.5-2.1,12.1-6.4,16.5
			c-4.3,4.5-9.6,6.8-15.9,6.8c-7.1,0-12.9-2.6-17.3-7.8c-3.4-4-5.1-9.8-5.1-16.9V68.3H149.1z"/>
		<path class="st1" d="M204.8,68.3h18.7v28.4c0,2.9,1.1,4.3,3.6,4.3c2.3,0,3.6-1.4,3.6-4.3V68.3h18.7v28c0,6.5-2.1,12.1-6.4,16.5
			s-9.6,6.8-15.9,6.8c-7.1,0-12.9-2.6-17.3-7.8c-3.4-4-5.1-9.8-5.1-16.9V68.3H204.8z"/>
		<path class="st1" d="M329.1,117.8h-18.7V90.7c0-2.2-0.3-3.6-0.7-4.3c-0.4-0.9-1.3-1.1-2.4-1.1c-2.1,0-3.1,1.9-3.1,5.6v27h-18.7
			V90.7c0-2.2-0.3-3.6-0.7-4.3c-0.4-0.7-1.3-1.1-2.4-1.1c-2.1,0-3.1,1.9-3.1,5.6v27h-18.7v-31c0-5.6,1.9-10.5,5.7-14.4
			c3.7-4,8.4-5.9,13.7-5.9c5.6,0,10.6,2.3,15,7c4.9-4.7,9.9-7,14.7-7c6.3,0,11.3,2.3,15,6.9c3,3.6,4.4,8.8,4.4,15.7v28.7H329.1z"/>
	</g>
	<g id="Lines_1_">
		<path class="st2" d="M32.6,1c-10,18-20,35.2-30,52.4c20,23,44.3,44.5,64.7,67.2"/>
		<polyline class="st3" points="47.6,15.4 17.6,68.5 83.3,136 257.6,136 		"/>
	</g>
</g>
<g>
</g>
<g>
</g>
<g>
</g>
<g>
</g>
<g>
</g>
<g>
</g>
<g>
</g>
<g>
</g>
<g>
</g>
<g>
</g>
<g>
</g>
<g>
</g>
<g>
</g>
<g>
</g>
<g>
</g>
</svg>
