<?xml version="1.0" encoding="utf-8"?>
<!-- Generator: Adobe Illustrator 25.2.0, SVG Export Plug-In . SVG Version: 6.00 Build 0)  -->
<svg version="1.1" id="Image_1_" xmlns="http://www.w3.org/2000/svg" xmlns:xlink="http://www.w3.org/1999/xlink" x="0px" y="0px"
	 viewBox="0 0 1165 400" style="enable-background:new 0 0 1165 400;" xml:space="preserve">
<style type="text/css">
	.st0{fill:#0078B4;}
	.st1{fill:#EBF3FA;}
	.st2{fill:#F3F8FC;}
	.st3{opacity:0.6;fill:#EBF3FA;enable-background:new    ;}
	.st4{fill:#E8F0FD;}
	.st5{fill:#C0D8FB;}
	.st6{fill:#DFEBFD;}
	.st7{fill:#B7D3F3;}
	.st8{fill:#DEEDFF;}
	.st9{fill:#2E3552;}
	.st10{fill:#122544;}
	.st11{fill:#D2E3FC;}
	.st12{fill:#82B378;}
	.st13{fill:#A8D29F;}
	.st14{fill:#2B478B;}
	.st15{fill:#EA9E6A;}
	.st16{fill:#D88D59;}
	.st17{fill:#8E342E;}
	.st18{fill:#233862;}
	.st19{fill:#B24940;}
	.st20{fill:#C65447;}
	.st21{fill:#F9DDBF;}
	.st22{fill:#ED7D2B;}
	.st23{fill:#FFB27D;}
	.st24{fill:#ED985F;}
	.st25{fill:#FFFFFF;}
	.st26{fill:#F99746;}
	.st27{fill:#FFC397;}
	.st28{fill:#2C3A64;}
	.st29{opacity:0.4;enable-background:new    ;}
</style>
<rect id="Background" y="1" class="st0" width="1165" height="400"/>
<g id="Image">
	<g>
		<path class="st1" d="M370.3,121.8v277L37.7,400c0.8-12.1-53.9-171.8,16.3-263.1c99.6-129.5,184.7-24.8,297-15.7
			C357.3,121.8,363.7,122,370.3,121.8z"/>
		<path class="st2" d="M1134.4,393.5c-0.4,3.5-36.5-0.6-37,2.8l-224.8,0.8H370.3V121.8c6.3-0.2,12.8-0.7,19.3-1.6
			c22.1-3,45.2-10.6,69.7-24.9C712.9-52,919.4-12,1035.3,103.1c14.3,14.2,27.2,29.5,38.6,45.8
			C1123.3,218.8,1145.5,305.9,1134.4,393.5z"/>
		<path class="st3" d="M1137.2,349.9c0.1,15.1-0.8,30.3-2.8,45.5c-0.4,3.5-36.5-0.6-37,2.8L872.6,399H370.3v-0.2l502.4-1.7
			l224.8-0.8c0.5-3.4,36.5,0.6,37-2.8C1136.3,378.9,1137.2,364.3,1137.2,349.9z"/>
		<polygon class="st4" points="1038.4,186.6 1038.4,397.1 389.6,397.1 389.6,213.9 439.3,213.9 439.3,163.9 489.1,163.9 
			489.1,231.5 529.3,231.5 529.3,216.4 599.4,216.4 599.4,241.9 630,241.9 630,184.6 711.7,184.6 711.7,86.3 776.3,86.3 
			776.3,138.7 791,138.7 791,94.8 855.6,94.8 855.6,162.5 914.2,162.5 914.2,121 976.8,121 976.8,162.5 988.5,162.5 988.5,186.6 		
			"/>
		<g>
			<path class="st5" d="M295.4,205h-57.7c-2.7,0-4.8-2.2-4.8-4.8v-55.8c0-2.7,2.2-4.8,4.8-4.8h57.7c2.7,0,4.8,2.2,4.8,4.8v55.8
				C300.2,202.9,298.1,205,295.4,205z"/>
			<path class="st6" d="M292.9,202.2h-52.7c-2.4,0-4.4-2-4.4-4.4v-51c0-2.4,2-4.4,4.4-4.4h52.7c2.4,0,4.4,2,4.4,4.4v51
				C297.3,200.2,295.3,202.2,292.9,202.2z"/>
			<g>
				<g>
					<ellipse class="st7" cx="266.6" cy="148.4" rx="1.4" ry="1.4"/>
					<path class="st7" d="M276.4,150.4c0.4-0.7,1.2-0.9,1.9-0.5c0.7,0.4,0.9,1.2,0.5,1.9s-1.2,0.9-1.9,0.5
						C276.3,151.9,276.1,151,276.4,150.4z"/>
					<path class="st7" d="M286.1,158c0.6-0.4,1.5-0.2,1.9,0.4c0.4,0.6,0.2,1.5-0.4,1.9s-1.5,0.2-1.9-0.4
						C285.2,159.3,285.4,158.5,286.1,158z"/>
					<ellipse class="st7" cx="290.8" cy="171.3" rx="1.4" ry="1.4"/>
					<path class="st7" d="M288.4,183.7c0.5,0.5,0.5,1.4,0,2c-0.5,0.5-1.4,0.5-2,0c-0.5-0.5-0.5-1.4,0-2
						C287,183.2,287.9,183.2,288.4,183.7z"/>
					<ellipse class="st7" cx="278.7" cy="193.5" rx="1.4" ry="1.4"/>
					<ellipse class="st7" cx="266.6" cy="197" rx="1.4" ry="1.4"/>
				</g>
				<g>
					<path class="st7" d="M256.7,150.4c-0.4-0.7-1.2-0.9-1.9-0.5s-0.9,1.2-0.5,1.9s1.2,0.9,1.9,0.5C256.8,151.9,257,151,256.7,150.4
						z"/>
					<path class="st7" d="M247,158c-0.6-0.4-1.5-0.2-1.9,0.4c-0.4,0.6-0.2,1.5,0.4,1.9c0.6,0.4,1.5,0.2,1.9-0.4
						C247.9,159.3,247.7,158.5,247,158z"/>
					<ellipse class="st7" cx="242.3" cy="171.3" rx="1.4" ry="1.4"/>
					<path class="st7" d="M244.7,183.7c-0.5,0.5-0.5,1.4,0,2c0.5,0.5,1.4,0.5,2,0c0.5-0.5,0.5-1.4,0-2
						C246.1,183.2,245.2,183.2,244.7,183.7z"/>
					<ellipse class="st7" cx="254.4" cy="193.5" rx="1.4" ry="1.4"/>
				</g>
			</g>
			<g>
				<ellipse class="st7" cx="267.6" cy="171.3" rx="1.4" ry="1.4"/>
				<g>
					<rect x="267.4" y="153.9" class="st7" width="0.4" height="17.5"/>
				</g>
				<g>
					<polygon class="st7" points="267.8,171.7 267.1,170.8 276.3,163.6 277,164.5 					"/>
				</g>
			</g>
		</g>
		<path class="st8" d="M389.6,120.3v275.4h-38.7V121.2C363.5,122.3,376.3,122.1,389.6,120.3z"/>
		<path class="st8" d="M1074,148.8v246.8h-38.7V103.1C1049.6,117.3,1062.5,132.6,1074,148.8z"/>
		<path class="st9" d="M1163.3,399.6H1.7c-0.9,0-1.7-0.8-1.7-1.7v-1.7c0-0.9,0.8-1.7,1.7-1.7h1161.6c0.9,0,1.7,0.8,1.7,1.7v1.7
			C1165,398.9,1164.2,399.6,1163.3,399.6z"/>
		<g>
			<polygon class="st7" points="421.3,298.4 415.1,298.4 422.7,394.7 437.8,394.7 			"/>
			<g>
				<path class="st10" d="M544.6,270.3l-1.3,0.3c-5.9,1.2-11.8-2.7-13-8.6l-1.4-7c-1.2-5.9,2.7-11.8,8.6-13l1.3-0.3
					c5.9-1.2,11.8,2.7,13,8.6l1.4,7C554.4,263.3,550.5,269.1,544.6,270.3z"/>
				<path class="st7" d="M415.1,298.4c0,0,33.9-15.9,80.2-5.3l-74,5.3H415.1z"/>
				<path class="st11" d="M437.8,395.7l-16.5-97.2c0,0,51.9-17.5,92.1,0l23.9,96.6L437.8,395.7z"/>
				<g>
					<path class="st12" d="M796.4,365.6c-0.9,10.5-6.9,13.8-9.5,13.5s-17.9-6.1-18.2-4s8.9,9.2,15.3,9.5c0,0-12.2,13.4-20.2,9.6
						c-8.1-3.9-8.8-10-13.8-12.3s-9.3-2.3-7.3,0.1c2.1,2.4,11.2,4.6,14.1,9.7c0.7,1.2,1.3,2.3,1.9,3.3h-17
						c-5.4-2.7-9.9-6.4-10.3-10.4c0-0.3-0.1-0.6-0.1-0.9c-0.5-6.1-0.5-6.1-0.5-6.1s-8.7-10.2-4.2-18.7c0.8-1.4,1.9-2.8,3.5-4
						c0,0,8.1-4.9,14.8-4.5c0,0-5.1,8.6-6.6,13.8c-0.5,1.8-0.6,3.2,0.2,3.6c0.9,0.4,2-0.9,3.2-2.9c2.9-5.2,6.1-15.4,6.1-15.4
						s4.9-0.5,10.5-0.5c2.5,0,5.1,0,7.5,0.2c2.6,0.2,5,0.7,6.5,1.4c0,0-0.3,0.3-0.9,0.7c-0.8,0.7-2.2,1.8-3.6,3.1
						c-4.4,3.9-10.1,9.4-8,9.9c1.7,0.4,7.2-2.8,12-6c4.5-3,8.5-5.9,8.5-5.9S797.4,355,796.4,365.6z"/>
					<g>
						<path class="st12" d="M788,365.8c0,0-46.9-1.8-57.2,11.6c0,0-2.3,6.9-9.3,13.1l-1.1,3c0,0,8.1-8.6,11-9.1
							C731.4,384.5,726.8,367.8,788,365.8z"/>
						<path class="st12" d="M723.4,390.5c-0.4,0.4-1,1-1.9,1.8l0,0c-0.3,0.3-0.6,0.6-0.9,0.9c-0.4,0.5-0.9,1-1.2,1.6h-2.2
							c2.3-2.8,4.2-4.2,4.2-4.2l0,0C721.6,390.5,725.6,388,723.4,390.5z"/>
					</g>
				</g>
				<g>
					<path class="st13" d="M679.6,360c0,0,18.9-10.6,10.1-25c0,0-7.1-8.8-14.6-11.1c0,0,4,21.5,0,22s-2.8-24.2-2.8-24.2
						s-19.9-9.6-27.7-8.8c0,0,12.4,21,8.3,20.5c-4-0.5-17.9-21.7-17.9-21.7s-20.4-3.8-23.7,8.3c-3.3,12.1,2,18.2,5,18.9
						c3,0.8,22.4,0.5,21.9,3s-13.6,6.6-20.9,4.3c0,0,8.1,20,18.7,18.9c10.6-1,13.9-7.6,20.4-8.1c6.6-0.5,11.3,1.3,8.1,3
						c-3.3,1.8-14.4,0.6-19.7,5.1s-9.6,7.3,0.3,9.3c9.8,2,27.5,0.8,31-6.8C679.6,360,679.6,360,679.6,360z"/>
					<g>
						<path class="st12" d="M620.6,323.6c0,0,52.9,17.2,59,36.4c0,0-0.3,8.6,5,18.4v3.8c0,0-5.5-12.9-8.6-14.7
							C676.1,367.6,687.9,350.9,620.6,323.6z"/>
						<path class="st12" d="M689.5,394.8h-3c-0.1-4.4-0.6-9.3-2.1-13.1l0,0c-0.2-0.5-0.4-0.9-0.6-1.3l0,0c-0.6-1.2-1.1-2.1-1.3-2.8
							l0,0c-1.5-3.8,2.2,0.9,2.2,0.9S689.1,385.2,689.5,394.8z"/>
					</g>
				</g>
				<g>
					<path class="st13" d="M709.7,345.4c0,0-24.9-14-13.3-33c0,0,9.3-11.7,19.3-14.7c0,0-5.3,28.3,0,29s3.7-32,3.7-32
						S745.7,282,756,283c0,0-16.3,27.6-11,27c5.3-0.7,23.6-28.6,23.6-28.6s26.9-5,31.2,11s-2.7,24-6.6,25c-4,1-29.6,0.7-28.9,4
						c0.7,3.3,17.9,8.7,27.6,5.7c0,0-10.6,26.3-24.6,25s-18.3-10-26.9-10.7c-8.6-0.7-15,1.7-10.6,4c4.3,2.3,18.9,0.8,25.9,6.7
						c7,5.9,12.6,9.6-0.3,12.3c-13,2.7-36.2,1-40.9-9C709.7,345.4,709.7,345.4,709.7,345.4z"/>
					<g>
						<path class="st12" d="M787.4,297.4c0,0-69.8,22.6-77.8,47.9c0,0,0.3,11.3-6.6,24.3v5c0,0,7.3-17,11.3-19.3
							C714.3,355.3,698.7,333.4,787.4,297.4z"/>
						<path class="st12" d="M705.9,368.5L705.9,368.5c-0.4,0.9-0.9,2.1-1.7,3.7l0,0c-0.3,0.6-0.6,1.2-0.8,1.8l0,0
							c-2.4,6-2.9,14.3-2.8,20.8h-4c-0.5-14.5,6.5-25.1,6.5-25.1l0,0C703.1,369.5,707.9,363.6,705.9,368.5z"/>
					</g>
				</g>
				<path class="st14" d="M585.6,395h-94.8c-1.4-3.4-2.6-7-3.7-10.8c-2.7-9.5-4.5-19.9-5.6-30.1c0-0.1,0-0.3,0-0.4
					c-1.9-17.7-1.9-34.8-1.7-45c0.1-5.9,0.4-9.6,0.4-9.8l0,0c0.2-0.1,0.4-0.2,0.6-0.2c5-2.1,9.8-3.9,14.5-5.5l0,0
					c3.9-1.3,7.6-2.5,11.2-3.5c6.3-1.7,12.2-3,17.6-3.9c6.4-1,12.2-1.5,17.4-1.6c0.2,0,0.5,0,0.7,0c1.4,0,2.7,0,4,0
					c13,0.3,21.6,2.9,26,4.6c0.6,0.2,1.1,0.5,1.6,0.7c0.1,0,0.1,0,0.2,0.1c0.5,0.2,0.9,0.4,1.1,0.5c0,0,0.1,0,0.1,0.1
					c0.1,0.1,0.3,0.1,0.4,0.2l6.8,72L585.6,395z"/>
				<path class="st14" d="M680.1,379.5c-9.5,4.4-66,8.1-71.4,6.6c-2.8-0.8-14.4-11.1-26.1-23.7l0,0c-11.1-12-22.3-26-26-36.2
					c-7.8-20.8-1.1-39.3-1.1-39.3s14.4-0.1,20.3,3.5c5.9,3.6,39.5,65.6,44,67.2c4.5,1.6,57.7,4.7,63.8,7.6
					C683.4,365.1,689.5,375.1,680.1,379.5z"/>
				<path class="st15" d="M542.3,286.7v3.5c0,0,1,11-12.5,12.6s-23.7-4.2-23.3-12.7c1.2-6.6,2.5-11.1,2.6-16.5c0-2-0.1-4.2-0.5-6.6
					l26.1-0.6l7.7,1.2L542.3,286.7z"/>
				<path class="st16" d="M542.4,267.7l-0.1,19c-2.8,1.3-5.9,2.1-9.4,2.1c-12,0-23.9-19.3-24.3-21.7L542.4,267.7z"/>
				<path class="st15" d="M543.9,276.9c0,0-33.4,6.8-37.3-14.1s-10.9-34.1,10.3-39.4c21.2-5.2,26.8,2,29.8,8.6
					C549.7,238.8,552.5,274.6,543.9,276.9z"/>
				<path class="st17" d="M553.2,216.5c0,0-9.3-0.7-20.3-5.5c-8.9-3.9-20.2,0.4-23.8,2.4c0.1-0.6,0.3-1.4,0.9-2.2
					c0,0-1.6,1.2-1.9,2.8c-0.2,0.1-0.2,0.2-0.2,0.2s-1.9-0.3-3.1,0.2c0,0,0.8-0.1,1.1,0.4c0,0.1,0.1,0.1,0.1,0.1
					c-13.9,6.8-15.2,28.8-10.7,33.9c5.4,6.1,11.9,19.9,11.9,19.9s2.4-3.3,1.4-8.7c-1-5.4,3.7-5.4,9.5-7.9c5.9-2.5,1-9.3,6.1-13.5
					s24-1.8,23.8-4.9C555,231.3,553.2,217.3,553.2,216.5z"/>
				<path class="st18" d="M490.8,395c-1.4-3.4-2.6-7-3.7-10.8c-2.7-9.5-4.5-19.9-5.6-30.1c0-0.1,0-0.3,0-0.4c0.1,0,0.2,0.2,0.3,0.1
					c3.7-4.5,13.8-9.4,26,8.5c2.4,3.6,13.1,28.6,14.8,32.7L490.8,395L490.8,395z"/>
				<path class="st15" d="M500.7,395c-0.3-1.6,0-3.6,1.3-6.2c0,0,1.6-1,3.6-2.2c3.1-1.7,7.3-3.9,9.2-3.5c0.3,0.1,0.8,0.2,1.4,0.3
					c4.5,1.1,15.2,4.4,16.8,6.3c1.3,1.6,3.1,3.6,4.4,5.3L500.7,395L500.7,395z"/>
				<path class="st14" d="M507.7,395h-89.3c-0.2-1.2-0.2-2.2,0.1-3c2.7-6.7,7.9-17.8,13.9-29.8c4.4-8.8,9.2-18,13.8-26.2
					c6.3-11.4,12.1-21,15.5-24.9c2.7-3.1,6.1-5.7,9.6-7.8c3-1.8,6.1-3.3,9-4.5l0,0c0.2-0.1,0.4-0.2,0.6-0.2
					c6.2-2.5,11.1-3.6,11.1-3.6s0.1,2.8,0.1,7.2c0,12.6-0.5,38-4.5,44.2c-1.1,1.7-3.2,4.3-5.8,7.4c-0.1,0.1-0.1,0.2-0.2,0.3
					c-1.4,1.7-3,3.4-4.6,5.3c-9.3,10.5-21.1,22.8-22.6,24.2c-0.1,0.1-0.1,0.2-0.1,0.2h0.2l25,0.4l7.7,0.1l15.9,0.2
					c1.1,0.5,2,1.3,2.6,2.2C507.2,388.9,507.7,392.2,507.7,395z"/>
				<path class="st18" d="M680.1,379.5c-9.5,4.4-66,8.1-71.4,6.6c-2.8-0.8-14.4-11.1-26.1-23.7c0.6,0.1,5.9-8.9,30.4,12.5
					c0,0,6.4,2.9,23.8,1.3C654.1,374.5,676.5,373.9,680.1,379.5z"/>
				<g>
					<path class="st19" d="M624.6,394.9H560l0,0c0-2.8,2.3-5.2,5.1-5.2h59.4L624.6,394.9L624.6,394.9z"/>
					<polygon class="st19" points="624.4,324.4 724.2,324.4 700.3,394.9 599.8,394.9 					"/>
					<polygon class="st20" points="725.7,324.4 701.7,394.9 601.3,394.9 625.8,324.4 					"/>
					<path class="st21" d="M671.9,359c-0.6,2.7-3.3,4.9-6,4.9s-4.4-2.2-3.7-4.9c0.6-2.7,3.3-4.9,6-4.9S672.5,356.3,671.9,359z"/>
					<polygon class="st19" points="725.7,324.4 701.7,394.9 655,394.9 711,324.4 					"/>
				</g>
				<path class="st10" d="M516.3,270.3l-1.3,0.3c-5.9,1.2-11.8-2.7-13-8.6l-1.4-7c-1.2-5.9,2.7-11.8,8.6-13l1.3-0.3
					c5.9-1.2,11.8,2.7,13,8.6l1.4,7C526.1,263.3,522.2,269.1,516.3,270.3z"/>
				<g>
					<path class="st10" d="M505.9,245.2c-0.9-1.6-2.2-14.6,1.4-24.9c1.7-5,4.5-7.8,8-9.8c1.3-0.7,2.7-1.1,4.1-1.1l3.5,0.1
						c-11.5,4.9-14.2,31.1-13.3,33.9c0-0.1-0.1-0.1-0.1-0.2L505.9,245.2z"/>
				</g>
				<g>
					<path class="st10" d="M539.7,272.5c-19.4,0-29-15.4-29.1-15.5l1.7-1.1l-0.9,0.5l0.9-0.5c0.1,0.1,9.1,14.6,27.4,14.6
						c0.1,0,0.2,0,0.4,0v2C539.9,272.5,539.8,272.5,539.7,272.5z"/>
				</g>
				<path class="st14" d="M513.2,263.5l-0.7,0.1c-3,0.6-5.9-1.3-6.5-4.3l-0.7-3.5c-0.6-3,1.3-5.9,4.3-6.5l0.7-0.1
					c3-0.6,5.9,1.3,6.5,4.3l0.7,3.5C518.1,260,516.1,262.9,513.2,263.5z"/>
				<path class="st10" d="M542.1,273.2h-1.8c-0.9,0-1.7-0.8-1.7-1.7l0,0c0-0.9,0.8-1.7,1.7-1.7h1.8c0.9,0,1.7,0.8,1.7,1.7l0,0
					C543.8,272.4,543,273.2,542.1,273.2z"/>
			</g>
		</g>
		<g>
			<path class="st17" d="M153.7,242.8c0,0-16.3,8.3-4.4,26.3c0,0-14,1.6-17.5-2.4c0,0,0.5,1.8,1.1,2.6c0,0-13.6-1.8-18.4-6.9
				c-4.9-5.1,10.3-73.6,46.4-59.6c0,0,32.1,2.9,23,39.2c-9.1,36.3,2.9,38.3,2.9,38.3s-3.6,1.1-5.2,0.8c0,0-2.2-1.3-2.4-2.7
				c0,0,0.1,2.1,0.6,2.9c0,0-13.1-0.9-18.8-6.9C155.3,268.3,150.6,250,153.7,242.8z"/>
			<path class="st22" d="M177,260.7l-1.3,0.2c-5.8,0.8-11.2-3.3-12-9.1l-0.9-6.8c-0.8-5.8,3.3-11.2,9.1-12l1.3-0.2
				c5.8-0.8,11.2,3.3,12,9.1l0.9,6.8C186.9,254.5,182.8,259.9,177,260.7z"/>
			<path class="st23" d="M180.7,315.4c-4.9,3.8-7.9,17.3-15.8,19.6c-29.4,8.4-45.1-26.5-50.3-43.6c3.9-2.5,7.7-3.2,9.9-3.6
				c2.1-0.4,4.4-0.6,6.3-0.8c3.2-2.7,7.6-13.5,7.9-29.8l1.4,0.3l23.8,5.2c0,0-0.7,7.5-0.9,14.6c-0.1,5.5-0.3,6.9,0.1,7.5
				c1.8,0.3,4,5,4,5l0,0C167.5,290.3,174.9,301.2,180.7,315.4z"/>
			<path class="st24" d="M163.9,262.7c0,0-0.7,7.5-0.9,14.6c-13.3-0.7-20.1-13-22.9-19.8L163.9,262.7z"/>
			<g>
				<path class="st11" d="M284.7,386.1c0,0-14,0.5-29.1,0.6c-1.8,0-3.6,0-5.4,0c-12.4-0.1-24.5-0.5-29.7-1.8
					c-5-1.3-24.5-14.5-40-30.5l0,0c-1.2,2.9-2.1,5.1-2.1,5.2c-0.5,3.6-1.2,7.2-2.1,10.6c-3.5,13.2-9.4,24.2-9.6,24.6h-8.3l-64.9-0.1
					c0,0,12.3-18.9,9-67.4c-0.1-1.2,11.3-40.4,11.3-40.4s8.8-1.6,19.1-2.4c1,0.9,3,26.6,15.7,28.1c2.1,0.2,15.4,20.7,15.4,20.7
					l4-20.9l-4.8-27.7c6.1,1.8,9.5,2.4,14.6,4.5c3.5,1.4,6.4,4,8.1,7.2c8.9,16.4,38,69.2,40.9,70.4c2.8,1.2,13.2,3.2,24.3,5.3l0,0
					c14.8,2.7,30.7,5.3,30.7,5.3L284.7,386.1z"/>
				<path class="st11" d="M171.2,394.9h-4.7l0,0H171.2z"/>
			</g>
			<path class="st23" d="M167.8,269.8c0,0-31.6-0.6-30.9-20.3c0.7-19.7-2.9-33.1,17.3-33.5c20.2-0.4,23.8,7.2,25.2,13.9
				C180.8,236.5,176.1,269.5,167.8,269.8z"/>
			<path class="st7" d="M255.5,386.7c-1.8,0-3.6,0-5.4,0c-12.4-0.1-24.5-0.5-29.7-1.8c-5-1.3-24.5-14.5-40-30.5l0,0
				c0,0,3.3-12.6,4.7-14.7s7,18.3,20,26.7c13,8.3,33.4,14.2,43.3,11.8C255.1,376.6,255.8,382.6,255.5,386.7z"/>
			<path class="st25" d="M161.6,258.9c0,0,0.2,2.4,5.4,2.7c0,0,4.3,0.3,4.5-2.2C171.5,259.4,167.6,257,161.6,258.9z"/>
			<g>
				<path class="st10" d="M163.3,266.8c-17.9-5.7-22.3-22.7-22.4-22.9l1.9-0.5l-1,0.2l1-0.2c0,0.2,4.2,16.1,21.1,21.5
					c0.1,0,0.2,0.1,0.3,0.1l-0.6,1.9C163.6,266.9,163.5,266.9,163.3,266.8z"/>
			</g>
			<path class="st22" d="M165.4,268.2l-1.7-0.5c-0.9-0.3-1.3-1.2-1.1-2.1l0,0c0.3-0.9,1.2-1.3,2.1-1.1l1.7,0.5
				c0.9,0.3,1.3,1.2,1.1,2.1l0,0C167.2,267.9,166.2,268.4,165.4,268.2z"/>
			<path class="st17" d="M169.6,213.4c0,0-8.1,24-20.2,28.1c-12.1,4.1-16.2-0.7-16.2-0.7s8.9-8.2,10-21.5
				C143.2,219.2,162.8,203.6,169.6,213.4z"/>
			<path class="st17" d="M154.5,220.5c0,0,16.5-0.9,21.4,3.8c3.5,3.4,3.5,5.2,3.7,9.7c0,0,7.2-11.1-0.2-18.9
				C171.6,206.7,154.5,220.5,154.5,220.5z"/>
			<path class="st17" d="M168.9,215.9c0,0-4.1,23-19.2,31.3c0,0,14.6-15,14.9-30C164.8,202.3,168.9,215.9,168.9,215.9z"/>
			<path class="st17" d="M114.5,262.3c4.9,5.1,18.4,6.9,18.4,6.9c-0.6-0.9-1.1-2.6-1.1-2.6c7,5.7,24.1,1.5,24.1,1.5
				c-13.6-3-9.2-22.8-4.6-23.6c2.7-14.9,8.1-33.4,10.6-41.7c-0.6-0.1-0.9-0.1-0.9-0.1C124.8,188.7,109.7,257.2,114.5,262.3z"/>
			<g>
				<path class="st22" d="M144.2,258.7l-1.3,0.2c-5.8,0.8-11.2-3.3-12-9.1L130,243c-0.8-5.8,3.3-11.2,9.1-12l1.3-0.2
					c5.8-0.8,11.2,3.3,12,9.1l0.9,6.8C154.1,252.4,150,257.9,144.2,258.7z"/>
				<g>
					<path class="st22" d="M135.6,233.7c-0.8-1.5,1.9-12.8,5.9-21.5c1.9-4.2,6.8-9.9,10.3-11.4c1.3-0.5,2.9-0.3,4.3,0
						c1,0.2,3.8,1.5,3.8,1.5c-11.4,3.6-21.4,27.6-20.7,30.1c0-0.1-0.1-0.1-0.1-0.2L135.6,233.7z"/>
				</g>
				<path class="st26" d="M141.6,251.9L141,252c-2.9,0.4-5.6-1.6-6-4.5l-0.5-3.4c-0.4-2.9,1.6-5.6,4.5-6l0.6-0.1
					c2.9-0.4,5.6,1.6,6,4.5l0.5,3.4C146.5,248.8,144.4,251.5,141.6,251.9z"/>
			</g>
			<path class="st23" d="M218.2,374.7c0,0,13.5-0.8,14.9-0.1c2.1,1.2,9.4,5.8,10.6,7.2c1.1,1.4,4.1,6.8,4.1,6.8s-1.3,0.4-1.9-0.2
				c-0.6-0.5-5-5.2-5-5.2l4.5,6.9c0,0-1.6-0.1-2.2-0.8c-0.6-0.7-4.9-5-4.9-5l-1.4-0.3c0,0,1.5,1.2,2.3,2.3c0.8,1.1,1.3,2.2,1.3,2.2
				s-1.3-0.2-1.7-0.4c-0.4-0.2-4.2-3.5-4.2-3.5l2,2.8c0,0-1.4-0.1-1.8-0.4c-0.4-0.3-3.4-3-3.9-3s-4.3-0.2-5.9-1
				c-1.6-0.9-6.7-2.8-6.7-2.8L218.2,374.7z"/>
			<path class="st7" d="M134.6,280.8c0,0-9.1,2.6-11.1,4.7c0,0,9.5,24.3,23.1,35.6l3.6-2.6v5.9l13.7,9
				C163.9,333.4,133.9,288.1,134.6,280.8z"/>
			<path class="st7" d="M176.2,370.3c-3.5,13.2-9.4,24.2-9.6,24.6h4.6h-4.7h-43.1h5c-0.1-0.4,7.3-20.6-5-28.8
				c-12.3-8.3-16.8-28.6-16.8-28.6l39.2-9.6c0,0,16.1,23.6,20.7,28.1c3.5,3.5,11.7,3.7,11.7,3.7L176.2,370.3z"/>
			<path class="st7" d="M163.1,284.8c0,0,4.2,33,0.7,48.6c0,0,5.6-10.3,6.4-12.2l-0.9-5.7l3.6,1.3c0,0-3.2-26.3-6.1-30.9
				c-2.9-4.6-3.9-5.1-3.9-5.1L163.1,284.8z"/>
			<path class="st23" d="M284.7,386.1c0,0-17.5,0.6-34.6,0.6c-4.2-6.6,1-14.5,1-14.5l0,0c14.8,2.7,30.7,5.3,30.7,5.3L284.7,386.1z"
				/>
			<path class="st22" d="M286.3,394.9h-64.6l0,0c0-2.8,2.3-5.2,5.1-5.2h59.4v5.2H286.3z"/>
			<polygon class="st22" points="386,324.4 362.1,394.9 261.6,394.9 286.2,324.4 			"/>
			<polygon class="st26" points="386,324.4 362.3,394.2 362.1,394.9 263,394.9 287.6,324.4 			"/>
			<path class="st27" d="M333.6,359c-0.6,2.7-3.3,4.9-6,4.9s-4.4-2.2-3.7-4.9c0.6-2.7,3.3-4.9,6-4.9S334.3,356.3,333.6,359z"/>
			<polygon class="st22" points="386,324.4 362.3,394.2 316.8,394.2 372.2,324.4 			"/>
			<path class="st23" d="M218.2,380.2c0,0-33.2,2.9-51.6,2.1v-18.1c12,3.3,51.6,10.5,51.6,10.5L218.2,380.2z"/>
			<path class="st11" d="M123.4,285.5c0,0-19,0.4-24.9,6.8s5.8,42.4,5.8,42.4s35.4,43.5,53.2,46.6c0,0,7.7,1.1,11.4,1.1
				c0,0-3.5-10.3,3-16.8c0,0-7.6-2.1-7.9-3.1C163.7,361.5,123.4,285.5,123.4,285.5z"/>
		</g>
		<g>
			<g>
				<path class="st28" d="M917.9,203.5c0,0-19.3-7.2-31.3,6.9c-6.9,8.1-51,92.3-50.5,99.7c0.5,7.4,4.7,11.1,4.7,11.1
					s-1.8-6.5-0.5-9.8c0,0-0.9,11.4,6.1,16.2c3.6,2.5,94.4-2.4,102.3-13.4c17.2-24-20.3-36.4-19.4-62.2
					C930,236.9,944.7,205.1,917.9,203.5z"/>
				<path class="st22" d="M936.3,257.2l-1.3,0.3c-5.7,1.2-11.4-2.6-12.6-8.4l-1.4-6.8c-1.2-5.8,2.6-11.4,8.3-12.6l1.3-0.3
					c5.7-1.2,11.4,2.6,12.6,8.4l1.4,6.8C945.8,250.4,942,256.1,936.3,257.2z"/>
				<path class="st26" d="M1018.7,394.7h-60.2c-10.2-16.3-19.2-38.2-21.3-55.3c-1-8.1-0.4-15.1,2.3-19.9c8.4-14.9-4.9-32.4-4.9-32.4
					s18.4,5.2,22.6,20.4c4.4,15.5,16,66.9,16,66.9l44.7,9.2C1020,389,1018.7,394.7,1018.7,394.7z"/>
				<path class="st22" d="M1018.7,394.7h-60.2c-10.2-16.3-19.2-38.2-21.3-55.3l8.9-2.7c0,0,11.3,51.7,17.9,52.5
					C970.5,390,1018.7,394.7,1018.7,394.7z"/>
				<path class="st23" d="M943.3,311.6c-4.6,4.1-10.6,7.6-18.3,10.4c-28.8,10.2-43-13.6-49.2-30.3c3.8-2.8,7.5-3.7,9.7-4.2
					c2.1-0.5,4.3-0.9,6.2-1.2c3-2.9,6.8-13.9,6.1-30.2l1.4,0.2l24,3.8c0,0-0.2,7.5,0,14.6c0.2,5.5,0.7,10.8,1.9,12
					c1.9,0.2,3,0.3,3,0.3l0,0C928.7,287.4,936.7,297.8,943.3,311.6z"/>
				<path class="st24" d="M923.3,260c0,0-0.2,7.5,0,14.6c-13.4,0.2-20.9-11.7-24.1-18.4L923.3,260z"/>
				<path class="st26" d="M954.8,336.7c-0.1,0.5-6.5,21.4-6.6,22c-2.2,17.5-6.3,36.2-6.3,36.2h-8.8l-58.2-0.1c0,0,7-21.2-11.5-53.8
					c-0.6-1.1-1.2-2.1-1.9-3.2c-2.6-4.3,14-50.8,14-50.8s7.3-1.3,17.5-2.1c1,0.9,8.1,26.9,20.9,27.7c16.8,1,10.4-28,10.4-28
					c6.8,1.4,9.3,1.9,18.1,6.1C942.5,290.6,955.2,333.8,954.8,336.7z"/>
				<path class="st23" d="M927.7,266.9c0,0-31.6,1.3-32.1-18.4s-4.9-32.8,15.2-34.5c20.1-1.7,24.2,5.7,26,12.3
					C938.6,232.8,935.9,266.1,927.7,266.9z"/>
				<path class="st25" d="M920.9,256.3c0,0,0.3,2.3,5.5,2.4c0,0,4.4,0,4.4-2.5C930.8,256.2,926.7,254.1,920.9,256.3z"/>
				<g>
					<path class="st10" d="M923.1,264.2c-18.3-4.6-23.7-21.3-23.8-21.5l1.9-0.6l-0.9,0.3l0.9-0.3c0.1,0.2,5.2,15.8,22.3,20.1
						c0.1,0,0.2,0.1,0.3,0.1l-0.5,1.9C923.3,264.2,923.2,264.2,923.1,264.2z"/>
				</g>
				<path class="st28" d="M925.2,265.4l-1.7-0.4c-0.9-0.2-1.4-1.1-1.2-2l0,0c0.2-0.9,1.1-1.4,2-1.2l1.7,0.4c0.9,0.2,1.4,1.1,1.2,2
					l0,0C926.9,265.1,926,265.6,925.2,265.4z"/>
				<path class="st28" d="M909.8,201.8c0,0,20.3-3.2,28.7,13.8c6.4,12.9,1.1,21-1.4,23.4c0,0-3.3-18.5-9.5-20.1c0,0-4-1.2-6.7,2
					s-6.7,17.4-11.2,19.5c0,0-14.1,3.5-14.8-1.4s-0.3-20.3,3.2-22.7C901.7,213.7,909.8,201.8,909.8,201.8z"/>
				<g>
					<path class="st22" d="M903.4,257.2l-1.3,0.3c-5.7,1.2-11.4-2.6-12.6-8.4l-1.4-6.8c-1.2-5.8,2.6-11.4,8.3-12.6l1.3-0.3
						c5.7-1.2,11.4,2.6,12.6,8.4l1.4,6.8C912.9,250.4,909.2,256.1,903.4,257.2z"/>
					<g>
						<path class="st22" d="M893.4,232.9c-0.9-1.4-2.1-12.7,1.3-21.7c1.7-4.4,4.4-6.8,7.7-8.5c1.2-0.6,2.6-0.9,4-0.9l3.4,0.1
							c-11.2,4.3-13.8,27.1-12.9,29.6c0-0.1-0.1-0.1-0.1-0.2L893.4,232.9z"/>
					</g>
					<path class="st26" d="M900.4,250.6l-0.6,0.1c-2.9,0.6-5.7-1.3-6.3-4.2l-0.7-3.4c-0.6-2.9,1.3-5.7,4.2-6.3l0.6-0.1
						c2.9-0.6,5.7,1.3,6.3,4.2l0.7,3.4C905.1,247.2,903.2,250,900.4,250.6z"/>
				</g>
				<path class="st22" d="M874.9,394.7c0,0,7-21.2-11.5-53.8l6.9-8.6c0,0,12.2,34.7,27.5,44.8c15.2,10.1,33.2,8,35.3,17.8
					L874.9,394.7z"/>
				<path class="st26" d="M875.5,286.9c0,0-12.6,1.1-21,16s-24.4,70.5-24.4,91.8h67.2c0,0,1.3-5.8-0.8-11.1l-41.6-8
					c0,0,25-37.3,25.3-53.3C880.6,306.2,875.5,286.9,875.5,286.9z"/>
				<path class="st23" d="M897.8,387.9c0,0,13.1-1.3,15.3-0.7s8.4,3.2,9.8,4.1c1.4,0.9,4,3.5,4,3.5s-1.7,0.3-2.7,0.1
					c-1-0.2-3.9-0.4-4.7-0.5s-3.6,0.5-3.6,0.5h-20.3L897.8,387.9z"/>
			</g>
			<g>
				<path class="st18" d="M1016.5,394.9h-64.6l0,0c0-2.8,2.3-5.2,5.1-5.2h59.4L1016.5,394.9L1016.5,394.9z"/>
				<polygon class="st18" points="1116.1,324.4 1092.2,394.9 991.7,394.9 1016.3,324.4 				"/>
				<polygon class="st14" points="1116.1,324.4 1092.4,394.2 1092.2,394.9 993.2,394.9 1017.8,324.4 				"/>
				<path class="st26" d="M1063.8,359c-0.6,2.7-3.3,4.9-6,4.9s-4.4-2.2-3.7-4.9c0.6-2.7,3.3-4.9,6-4.9
					C1062.7,354.1,1064.4,356.3,1063.8,359z"/>
				<polygon class="st18" points="1116.1,324.4 1092.4,394.2 1046.9,394.2 1102.4,324.4 				"/>
			</g>
		</g>
	</g>
</g>
<rect id="Filter" class="st29" width="1165" height="400"/>
</svg>
