<?xml version="1.0" encoding="utf-8"?>
<!-- Generator: Adobe Illustrator 25.2.0, SVG Export Plug-In . SVG Version: 6.00 Build 0)  -->
<svg version="1.1" id="Layer_1" xmlns="http://www.w3.org/2000/svg" xmlns:xlink="http://www.w3.org/1999/xlink" x="0px" y="0px"
	 viewBox="0 0 1900 400" style="enable-background:new 0 0 1900 400;" xml:space="preserve">
<style type="text/css">
	.st0{fill:#1A85BB;}
	.st1{opacity:0.5;fill:#FFFFFF;enable-background:new    ;}
	.st2{opacity:0.4;}
</style>
<g id="Background">
	<rect class="st0" width="1900" height="400"/>
</g>
<g id="Icons">
	<g id="Icon_Group_1">
		<path id="Teacher_-_ICON" class="st1" d="M845.8,105.4c3.8,0,6.8-3.2,6.8-7V59.5c0-3.9-3.1-7-6.8-7h-36c1.2,2.1,1.8,4.6,1.8,7
			h34.1v38.8H815v7 M828.7,70.1v7h-20.5V123h-6.8v-21.1h-6.8V123h-6.8V94.8h-5.1V77.2c0-3.9,3.1-7,6.8-7L828.7,70.1 M804.8,59.5
			c0,3.9-3.1,7-6.8,7c-3.8,0-6.8-3.2-6.8-7s3.1-7,6.8-7C801.7,52.5,804.8,55.7,804.8,59.5z"/>
		<path id="Money_-_ICON" class="st1" d="M65.8,52.5h81.8v52.9H65.8V52.5 M106.7,65.7c7.5,0,13.6,5.9,13.6,13.2s-6.1,13.2-13.6,13.2
			s-13.6-5.9-13.6-13.2S99.2,65.7,106.7,65.7 M84,61.3c0,4.9-4.1,8.8-9.1,8.8v17.6c5,0,9.1,3.9,9.1,8.8h45.5c0-4.9,4.1-8.8,9.1-8.8
			V70.1c-5,0-9.1-3.9-9.1-8.8H84 M47.6,70.1h9.1v44h72.7v8.8H47.6V70.1z"/>
		<path id="Batery_-_ICON" class="st1" d="M439.9,52.5v12.4h-12.3v58h90v-58h-12.3V52.5h-24.5v12.4h-16.4V52.5H439.9 M435.8,73.2
			h73.6v41.5h-73.6V73.2 M484.9,81.5v8.3h-8.2v8.3h8.2v8.3h8.2v-8.3h8.2v-8.3h-8.2v-8.3H484.9 M444,89.8v8.3h24.5v-8.3H444z"/>
		<path id="Book_-_ICON" class="st1" d="M310.1,93.3c3.2,0,6.7,0.3,10.2,1v6.2c-2.5-0.7-6-1-10.2-1c-7.8,0-13.9,1.4-18.4,4.1v-7
			C296.5,94.4,302.6,93.3,310.1,93.3 M291.7,85.5c5.3-2.2,11.4-3.3,18.4-3.3c3.2,0,6.7,0.3,10.2,1v6.2c-2.5-0.7-6-1-10.2-1
			c-7.8,0-13.9,1.4-18.4,4.1 M310.1,77.4c-7.8,0-13.9,1.3-18.4,4.1v-6.9c5-2.3,11.2-3.5,18.4-3.5c3.2,0,6.7,0.3,10.2,1v6.4
			C317.3,77.7,313.8,77.4,310.1,77.4 M324.4,110.5V62.9c-4.3-1.4-9-2.1-14.3-2.1c-8.4,0-15.9,2.1-22.5,6.2v47.7
			c6.6-4.1,14.1-6.2,22.5-6.2C315,108.5,319.8,109.1,324.4,110.5 M310.1,52.5c9.6,0,17.1,2.1,22.5,6.2v60.4c0,0.5-0.2,1-0.7,1.5
			c-0.5,0.4-0.9,0.7-1.4,0.7c-0.4,0-0.8-0.1-1-0.2c-5.2-2.9-11.7-4.3-19.4-4.3c-8.4,0-15.9,2.1-22.5,6.2c-5.5-4.1-13-6.2-22.5-6.2
			c-6.8,0-13.3,1.5-19.4,4.4c-0.1,0-0.3,0-0.5,0.1c-0.2,0-0.3,0.1-0.5,0.1c-0.4,0-0.9-0.2-1.4-0.5c-0.4-0.5-0.7-0.9-0.7-1.5V58.7
			c5.5-4.1,13-6.2,22.5-6.2c9.5,0,17,2.1,22.5,6.2C293.1,54.6,300.6,52.5,310.1,52.5z"/>
		<path id="Eraser_-_ICON" class="st1" d="M666.4,54.7l19,18.6c3,3,3,7.7,0,10.7l-35.3,34.6c-6,5.9-15.7,5.9-21.7,0l-13.5-13.3
			c-3-3-3-7.7,0-10.7l40.7-39.9C658.5,51.8,663.4,51.8,666.4,54.7 M620.3,99.9l13.6,13.3c3,3,7.8,3,10.9,0l13.5-13.3l-19-18.6
			L620.3,99.9z"/>
		<path id="Alert_-_ICON" class="st1" d="M1316.5,91.7h-7.8V68.2h7.8 M1308.7,99.5h7.8v7.8h-7.8 M1327.1,52.5h-29l-20.5,20.6v29.2
			l20.5,20.7h29l20.5-20.6V73.1L1327.1,52.5z"/>
		<path id="Speedometer_-_ICON" class="st1" d="M1182.6,100c0,9.5-4.2,17.9-10.8,23l-1.8-1.8l-7.3-7.7l4.9-5.1l4.2,4.4
			c1.8-2.6,3.2-5.8,3.5-9.1h-6.7v-7.3h6.7c-0.7-3.3-1.8-6.2-3.5-9.1l-4.2,4.4l-4.9-5.1l4.2-4.4c-2.4-1.8-5.6-3.3-8.8-3.7v6.9h-7
			v-6.9c-3.2,0.7-5.9,1.8-8.8,3.7l10.5,11c0.7,0,1.1-0.4,1.8-0.4c3.9,0,7,3.3,7,7.3s-3.1,7.3-7,7.3s-7-3.3-7-7.3
			c0-0.7,0-1.1,0.3-1.8l-10.5-11c-1.8,2.6-3.2,5.8-3.5,9.1h6.7v7.3h-6.7c0.7,3.3,1.8,6.2,3.5,9.1l4.2-4.4l4.9,5.1l-9.1,9.5
			c-6.7-5.1-10.8-13.5-10.8-23c0-16.1,12.5-29.2,28-29.2S1182.6,83.8,1182.6,100 M1129,64.6l-11.5-12.1l-4.9,5.1l11.6,12.1l-4.6,4.7
			h14V59.8L1129,64.6z"/>
		<path id="Pen_-_ICON" class="st1" d="M1000.4,52.5c-1.4,0-2.8,0.6-3.9,1.6l-7.8,7.9l19.5,19.7l7.8-7.8c2.2-2.3,2.2-5.8,0-7.9
			l-11.7-11.8C1003.2,53.1,1001.8,52.5,1000.4,52.5 M986,64.6l-29.8,30.1l9.4,1l0.7,8.5l8.4,0.6l1.1,9.5l29.8-30.1 M954,98.2
			l-6.4,24.8l24.7-6.6l-0.9-8l-8.5-0.6l-0.7-8.6"/>
		<path id="Seat_-_ICON" class="st1" d="M1493.2,61.8c0,5.2-4,9.3-9,9.3s-9-4.1-9-9.3s4-9.3,9-9.3S1493.2,56.6,1493.2,61.8
			 M1485.9,74.8h-2.9c-7.6,0-14.8-4.5-18.4-11.5c-0.4-0.4-0.7-0.7-0.7-1.1l-6.5,3c1.8,5.2,7.6,11.9,15.9,15.2l-6.5,18.5l-14.1-4.1
			l-10.1,20.4l7.2,1.9l6.5-13.4l16.2,4.5c3.6,0.7,7.2-1.1,8.7-4.5l8.3-23.7C1490.3,77.4,1488.5,74.8,1485.9,74.8 M1500,71
			l-12.3,34.9c-2.2,5.9-7.6,9.6-13.4,9.6c-1.1,0-2.5,0-3.6-0.4l-10.5-3l-3.2,6.7l7.2,1.9l5.1,1.5c1.8,0.4,3.6,0.7,5.4,0.7
			c9,0,17-5.6,20.2-14.5l12.6-37.5h-7.5V71z"/>
		<path id="Map_-_ICON" class="st1" d="M1627.6,86c-4.9,0-8.9-3.9-8.9-8.8s4-8.8,8.9-8.8s8.9,3.9,8.9,8.8S1632.5,86,1627.6,86
			 M1627.6,52.5c-13.8,0-25,11-25,24.7c0,18.5,25,45.8,25,45.8s25-27.3,25-45.8C1652.6,63.5,1641.4,52.5,1627.6,52.5z"/>
		<path id="Car_-_ICON" class="st1" d="M1828.7,74.5h-11.8l-5.5-8.3l6.8-4.6l-5.2-8l-21.5,14.5l5.2,8l6.8-4.6l5.5,8.4l-4.2,4.3
			h-13.4l-20.9-31.7l-7.9,5.3l8.1,12.4c-13.5,2.6-23.2,14.6-23.2,28.5v9.7h9.5c0,8,6.4,14.5,14.3,14.5s14.3-6.5,14.3-14.5h28.6
			c0,8,6.4,14.5,14.3,14.5s14.3-6.5,14.3-14.5h9.5v-9.7C1852.6,85.4,1841.9,74.5,1828.7,74.5 M1771.5,115.7c-4,0-7.2-3.3-7.2-7.3
			s3.2-7.3,7.2-7.3s7.2,3.3,7.2,7.3C1778.6,112.5,1775.4,115.7,1771.5,115.7 M1828.7,115.7c-4,0-7.2-3.3-7.2-7.3s3.2-7.3,7.2-7.3
			s7.2,3.3,7.2,7.3C1835.9,112.5,1832.7,115.7,1828.7,115.7z"/>
	</g>
	<g id="Icon_Group_2">
		<path id="Paperclip_-_ICON" class="st1" d="M95.3,180.3v36.8c0,7.1-5.7,12.8-12.7,12.8s-12.7-5.7-12.7-12.8v-40c0-4.4,3.6-8,8-8
			s8,3.6,8,8v33.6c0,1.8-1.4,3.2-3.2,3.2s-3.2-1.4-3.2-3.2v-30.4h-4.8v30.4c0,4.4,3.6,8,8,8s8-3.6,8-8v-33.6
			c0-7.1-5.7-12.8-12.7-12.8s-12.9,5.7-12.9,12.8v40c0,9.7,7.8,17.6,17.5,17.6s17.5-7.9,17.5-17.6v-36.8H95.3z"/>
		<path id="File_-_ICON" class="st1" d="M1616,188.9v-19.4l18.9,19.4 M1592,164.3c-3.8,0-6.9,3.1-6.9,7v56.4c0,3.9,3.1,7,6.9,7h41.2
			c3.8,0,6.9-3.2,6.9-7v-42.3l-20.6-21.1H1592z"/>
		<path id="Truck_-_ICON" class="st1" d="M282.1,181.9h-21.6v26.4h-56.1v13.2h4.3c0,7.5,5.6,13.2,13,13.2s13-5.7,13-13.2h25.9
			c0,7.5,5.6,13.2,13,13.2s13-5.7,13-13.2h8.6v-22L282.1,181.9 M221.7,228.1c-3.5,0-6.5-3.1-6.5-6.6s3-6.6,6.5-6.6s6.5,3.1,6.5,6.6
			S225.1,228.1,221.7,228.1 M273.5,228.1c-3.5,0-6.5-3.1-6.5-6.6s3-6.6,6.5-6.6s6.5,3.1,6.5,6.6S277,228.1,273.5,228.1 M269.2,199.5
			v-11H280l8.6,11H269.2 M256.2,188.5c0,8.4-6.9,15.4-15.1,15.4h-25.9c-8.2,0-15.1-7-15.1-15.4s6.9-15.4,15.1-15.4h2.2v-4.4h-4.3
			v-4.4h17.3v4.4h-4.3v4.4h15C249.3,173.1,256.2,180.1,256.2,188.5z"/>
		<path id="Gas_station_-_ICON" class="st1" d="M1155.3,191.7c-2.2,0-3.9-1.8-3.9-3.9c0-2.2,1.8-3.9,3.9-3.9s3.9,1.8,3.9,3.9
			S1157.4,191.7,1155.3,191.7 M1131.6,191.7H1108v-19.6h23.6 M1162.2,180.8L1162.2,180.8l-14.6-14.6l-4.2,4.2l8.3,8.3
			c-3.7,1.3-6.3,4.9-6.3,9.1c0,5.4,4.4,9.8,9.8,9.8c1.4,0,2.7-0.3,3.9-0.8V225c0,2.2-1.8,3.9-3.9,3.9s-3.9-1.8-3.9-3.9v-17.6
			c0-4.3-3.5-7.8-7.9-7.8h-3.9v-27.4c0-4.3-3.5-7.8-7.9-7.8H1108c-4.4,0-7.9,3.5-7.9,7.8v62.6h39.4v-29.4h5.9V225
			c0,5.4,4.4,9.8,9.8,9.8s9.8-4.4,9.8-9.8v-37.2C1165.1,185,1164,182.6,1162.2,180.8z"/>
		<path id="Engine_-_ICON" class="st1" d="M1766,164.3v8.8h13v8.8h-13l-8.6,8.8v13.2h-8.6v-13.2h-8.6v35.2h8.6v-13.2h8.6v13.2h13
			l8.6,8.8h34.5v-17.6h8.6v13.2h13v-44h-13v13.2h-8.6v-17.6h-25.9v-8.8h13v-8.8L1766,164.3L1766,164.3z"/>
		<path id="Road_-_ICON" class="st1" d="M648.6,167.8c-0.4-2.2-2.1-3.5-4.2-3.5h-17.3l0.8,13.2h-10.2l0.8-13.2h-17.8
			c-2.1,0-3.8,1.8-4.2,3.5l-11.4,61.7c-0.4,2.6,1.7,5.3,4.2,5.3h25l1.3-22H630l1.3,22h24.5c2.5,0,4.7-2.6,4.2-5.3L648.6,167.8
			 M616,203.9l0.8-17.6h11l0.8,17.6H616z"/>
		<path id="Fuel_-_ICON" class="st1" d="M1425.1,164.3h10.6c1,0,1.9,0.4,2.5,1.1l7.3,7.8l2.8-2.9c1.4-1.4,3.2-2.2,5-2.2h21.2
			c1.8,0,3.5,0.7,5,2.2l3.5,3.7c1.4,1.5,2.1,3.4,2.1,5.2v48.2c0,4.1-3.2,7.4-7.1,7.4h-35.3c-3.9,0-7.1-3.3-7.1-7.4v-22.3v-3.7v-14.8
			c0-1.9,0.7-3.7,2.1-5.2l2.8-3l-6.3-6.6h-9.1V164.3 M1453.3,175.4v7.4h21.2v-7.4H1453.3 M1454.8,197.6l-7.1-7.4h-5v5.2l7.1,7.4
			v11.8l-7.1,7.4v5.2h5l7.1-7.4h11.2l7.1,7.4h5V222l-7.1-7.4v-11.8l7.1-7.4v-5.2h-5l-7.1,7.4H1454.8 M1456.9,205.1h7.1v7.4h-7.1
			V205.1z"/>
		<path id="Oil_-_ICON" class="st1" d="M424.7,219.1c-5,0-8.3,3.1-10.2,5.1c-1.9,2-2.3,2.8-4.9,2.8s-3-0.8-4.9-2.8
			c-1.4-1.4-3.5-3.4-6.5-4.4v8.8c0.3,0.4,0.7,0.7,1.1,1.2c1.9,2,5.2,5.1,10.2,5.1s8.3-3.1,10.2-5.1c1.9-2,2.3-2.8,4.9-2.8
			s3,0.8,4.9,2.8c1.7,1.7,4.3,4.3,8.3,4.9c0.6,0.2,1.2,0.2,1.9,0.2c5,0,8.3-3.1,10.2-5.1c1.9-2,2.3-2.8,4.9-2.8s3,0.8,4.9,2.8
			s5.2,5.1,10.2,5.1s8.3-3.1,10.2-5.1c0.4-0.5,0.8-0.8,1.1-1.2v-8.8c-3,1-5.1,3-6.4,4.4c-1.9,2-2.3,2.8-4.9,2.8
			c-2.5,0-3-0.8-4.9-2.8s-5.2-5.1-10.2-5.1s-8.3,3.1-10.2,5.1c-1.9,2-2.3,2.8-4.9,2.8c-0.8,0-1.4-0.1-1.9-0.3
			c-1.1-0.4-1.7-1.1-3-2.5C433.1,222.2,429.8,219.1,424.7,219.1 M477.6,189.7c0,0,7.5,8.5,7.5,13.7c0,4.3-3.4,7.8-7.5,7.8
			s-7.5-3.5-7.5-7.8C470,198.2,477.6,189.7,477.6,189.7 M479.4,176.5l-12.3-7.4l-24.6,14.7c-1.3-2.3-3.7-3.9-6.5-3.9h-7.5v-7.8h3.8
			c2.1,0,3.8-1.8,3.8-3.9s-1.7-3.9-3.8-3.9h-15.1c-2.1,0-3.8,1.8-3.8,3.9s1.7,3.9,3.8,3.9h3.8v7.8h-7.5c-4.1,0-7.5,3.5-7.5,7.8v11.7
			c0,4.3,3.4,7.8,7.5,7.8h33.9c2.8,0,5.3-1.6,6.6-4l13.8-24.7l7.9,4.7c1.9,1.1,4.1,0.4,5.2-1.4C481.9,179.9,481.3,177.6,479.4,176.5
			 M447.4,199.5h-33.9v-11.7h25.2l3.4,5.6l13.1-7.8L447.4,199.5 M407.8,175.7l-6.5,6.7c-1.6,1.4-4,1.2-5.3-0.4
			c-1.2-1.5-1.2-3.6,0-5.1l6.5-6.7c1.5-1.5,3.8-1.5,5.3,0C409.2,171.7,409.2,174,407.8,175.7z"/>
		<path id="Key_-_ICON" class="st1" d="M1000.1,220.6v14.1h-14v-10.6h-10.5v-10.6h-10.5l-7.9-8c-1.9,0.6-4,0.9-6.1,0.9
			c-11.6,0-21-9.5-21-21.1c0-11.7,9.4-21.1,21-21.1s21,9.5,21,21.1c0,2.1-0.3,4.2-0.9,6.1L1000.1,220.6 M947.6,174.8
			c-3.9,0-7,3.2-7,7s3.1,7,7,7s7-3.2,7-7S951.5,174.8,947.6,174.8z"/>
		<path id="Smile_-_ICON" class="st1" d="M795.1,164.3c-19.4,0-35,15.9-35,35.2c0,19.5,15.7,35.2,35,35.2s35-15.8,35-35.2
			S814.4,164.3,795.1,164.3 M807.3,185.4c2.9,0,5.2,2.4,5.2,5.3s-2.4,5.3-5.2,5.3s-5.2-2.4-5.2-5.3S804.5,185.4,807.3,185.4
			 M782.9,185.4c2.9,0,5.2,2.4,5.2,5.3s-2.4,5.3-5.2,5.3s-5.2-2.4-5.2-5.3S780,185.4,782.9,185.4 M795.1,218.9
			c-8.2,0-15.1-5.1-17.9-12.3H813C810.1,213.7,803.3,218.9,795.1,218.9z"/>
		<path id="Flag_-_ICON" class="st1" d="M1302.7,172.5h22.4V214h-28l-1.6-8.3h-22.4v29h-8v-70.5h36L1302.7,172.5 M1301.1,205.7h8
			v-8.3h8v-8.3h-8v-8.3h-8v8.3l-4-8.3v-8.3h-8v8.3h-8v-8.3h-8v8.3h8v8.3h-8v8.3h8v-8.3h8v8.3h8v-8.3l4,8.3V205.7 M1289.1,189.1v-8.3
			h8v8.3H1289.1 M1301.1,189.1h8v8.3h-8V189.1z"/>
	</g>
	<g id="Icon_Group_3">
		<path id="Coffee_-_ICON" class="st1" d="M807.6,347.5h67.5v-7.8h-67.5 M875.1,296.6h-7.5v-11.7h7.5 M875.1,277h-60v39.2
			c0,8.6,6.7,15.7,15,15.7h22.5c8.3,0,15-7,15-15.7v-11.7h7.5c4.1,0,7.5-3.5,7.5-7.8V285C882.6,280.5,879.2,277,875.1,277z"/>
		<path id="City_-_ICON" class="st1" d="M1350.4,301.7v-7c0-3.9-3.2-7-7.2-7h-3.6V277h-7.2v10.6h-3.6c-4,0-7.2,3.2-7.2,7v7
			c-4,0-7.2,3.2-7.2,7v3.5H1300c-4,0-7.2,3.2-7.2,7v28.2h10.8v-7h7.2v7h14.4v-7h7.2v7h7.2v-7h7.2v7h10.8v-38.8
			C1357.6,304.8,1354.4,301.7,1350.4,301.7 M1310.7,333.4h-7.2v-7h7.2V333.4 M1332.3,333.4h-7.2v-7h7.2V333.4 M1332.3,319.3h-7.2v-7
			h7.2V319.3 M1328.7,301.7v-7h14.4v7H1328.7 M1346.8,333.4h-7.2v-7h7.2V333.4 M1346.8,319.3h-7.2v-7h7.2V319.3z"/>
		<path id="Pause_-_ICON" class="st1" d="M1182.1,277l20.5,20.6v29.2l-20.5,20.6h-29l-20.5-20.6v-29.2l20.5-20.6H1182.1
			 M1179.3,327.9v-31.3h-7.8v31.3H1179.3 M1163.7,327.9v-31.3h-7.8v31.3H1163.7z"/>
		<path id="User_-_ICON" class="st1" d="M1007.6,277c9.7,0,17.5,7.9,17.5,17.6s-7.8,17.6-17.5,17.6s-17.5-7.9-17.5-17.6
			S997.9,277,1007.6,277 M1007.6,321.1c19.3,0,35,7.9,35,17.6v8.8h-70v-8.8C972.6,329,988.3,321.1,1007.6,321.1z"/>
		<path id="Wheelchair_-_ICON" class="st1" d="M1642.1,309.6l-14.1,0.7l7.9-8.7c0.7-1,1-2.7,0.7-4.4c-0.3-1-0.7-2-1.7-2.7
			l-18.6-10.7c-1.4-1-3.4-0.7-4.8,0.3l-9.3,8.4c-1.7,1.7-2.1,4-0.3,5.7c1.4,1.7,4.1,1.7,5.8,0.3l6.9-6l6.5,3.7l-14.4,14.4
			c-0.3,0.3-0.3,0.7-0.7,0.7c-1.7,0.7-3.4,1.3-4.8,2.3l5.2,5c1.7-0.7,3.4-1.3,5.2-1.3c6.5,0,12,5.4,12,11.7c0,2-0.3,3.7-1.4,5l5.2,5
			c2.1-3,3.1-6.4,3.1-10.1c0-4-1.4-8.1-3.8-11.1l11.3-1l-0.7,16.1c-0.3,2.3,1.4,4,3.8,4.4h0.3c2.1,0,3.8-1.7,4.1-3.7l0.7-19.8
			c0-1-0.3-2.3-1-3C1644.2,309.9,1643.1,309.6,1642.1,309.6 M1640.7,290.4c3.8,0,6.9-3,6.9-6.7s-3.1-6.7-6.9-6.7s-6.9,3-6.9,6.7
			S1636.9,290.4,1640.7,290.4 M1621.8,344.5c-3.1,2-6.5,3-10.3,3c-10.3,0-18.9-8.4-18.9-18.5c0-3.7,1-7,3.1-10.1l5.2,5
			c-0.7,1.7-1.4,3.4-1.4,5c0,6.4,5.5,11.7,12,11.7c2.1,0,3.8-0.3,5.2-1.3L1621.8,344.5z"/>
		<path id="Book_-_ICON_1_" class="st1" d="M1495.7,347.5c3.8,0,6.9-3.2,6.9-7v-56.4c0-3.9-3.1-7-6.9-7h-20.6v24.7l-8.6-5.3
			l-8.6,5.3V277h-3.4c-3.8,0-6.9,3.2-6.9,7v56.4c0,3.9,3.1,7,6.9,7h41.2V347.5z"/>
		<path id="Account_-_ICON" class="st1" d="M280.5,277h79.2c4.2,0,7.9,3.7,7.9,7.8v54.8c0,4.1-3.8,7.8-7.9,7.8h-79.2
			c-4.2,0-7.9-3.7-7.9-7.8v-54.8C272.6,280.7,276.4,277,280.5,277 M328,288.8v3.9h31.7v-3.9H328 M328,296.6v3.9h29.7h2v-3.9H328
			 M328,304.4v3.9h27.7v-3.9H328 M304.3,319.7c-7.9,0-23.8,4.3-23.8,12.1v3.9H328v-3.9C328,324,312.2,319.7,304.3,319.7
			 M304.3,288.8c-6.6,0-11.9,5.3-11.9,11.7s5.3,11.7,11.9,11.7s11.8-5.2,11.8-11.7S310.8,288.8,304.3,288.8z"/>
		<path id="Car_-_ICON_1_" class="st1" d="M142.8,277H86l-28.4,35.2v17.6H69c0,9.7,7.6,17.6,17,17.6s17-7.9,17-17.6h34.1
			c0,9.7,7.6,17.6,17,17.6s17-7.9,17-17.6h11.4v-17.6c0-6.5-5.1-11.7-11.4-11.7h-11.4L142.8,277 M88.9,285.8h22.7v14.7H77.5
			L88.9,285.8 M120.1,285.8H140l11.1,14.7h-31V285.8 M86,321.1c4.7,0,8.5,3.9,8.5,8.8s-3.8,8.8-8.5,8.8s-8.5-3.9-8.5-8.8
			S81.3,321.1,86,321.1 M154.2,321.1c4.7,0,8.5,3.9,8.5,8.8s-3.8,8.8-8.5,8.8s-8.5-3.9-8.5-8.8S149.5,321.1,154.2,321.1z"/>
		<path id="Wifi_-_ICON" class="st1" d="M675.1,347.5l14.2-18.8c-3.9-2.9-8.9-4.7-14.2-4.7s-10.2,1.8-14.2,4.7L675.1,347.5
			 M675.1,277c-15.9,0-30.7,5.2-42.5,14.1l7.1,9.4c9.8-7.4,22.1-11.7,35.4-11.7s25.6,4.4,35.4,11.7l7.1-9.4
			C705.8,282.3,691,277,675.1,277 M675.1,300.5c-10.6,0-20.4,3.5-28.3,9.4l7.1,9.4c5.9-4.4,13.3-7,21.2-7s15.3,2.6,21.2,7l7.1-9.4
			C695.5,304,685.7,300.5,675.1,300.5z"/>
		<path id="Motorbike_-_ICON" class="st1" d="M1818.6,298.7l-21.1-21.7h-23.2v10.8h18.8l10.5,10.8h-42.5
			c-13.1,0-23.6,10.8-23.6,24.4s10.5,24.4,23.6,24.4c11.7,0,21.3-8.8,23.2-20.2l11.1-6.9c-0.2,0.9-0.2,1.8-0.2,2.7
			c0,13.6,10.5,24.4,23.6,24.4s23.6-10.8,23.6-24.4s-10.5-24.4-23.6-24.4 M1773.5,327.2c-1.8,5.5-6.6,9.4-12.4,9.4
			c-7.2,0-13.1-6.1-13.1-13.6s5.9-13.6,13.1-13.6c5.9,0,10.7,4,12.4,9.5h-14.9v8.1L1773.5,327.2 M1818.8,336.7
			c-7.2,0-13.1-6.1-13.1-13.6s5.9-13.6,13.1-13.6s13.1,6.1,13.1,13.6S1826.1,336.7,1818.8,336.7z"/>
		<path id="Helmet_-_ICON" class="st1" d="M457.7,308.8c-0.9,10.5,2.1,19.3,8.5,27.3c6.4,7.9,14.9,11.4,25.2,11.4h42.7
			c2.1,0,4.3-0.9,6-2.6c1.7-1.8,2.6-4,2.6-6.2v-3.5c0-2.6-0.4-5.7-0.9-9.7h-35c-4.3,0-7.7-1.8-10.7-4.8c-3-3.1-4.7-7-4.7-11
			c0-7,3-11.9,9.4-14.5l20.5-9.2c-7.2-5.3-15.8-8.4-25.6-8.8c-9.4-0.9-17.9,2.2-25.6,8.4C462.4,291.7,458.6,299.1,457.7,308.8
			 M500,309.7c0,1.8,0.9,3.5,2.1,4.8c1.3,1.3,3,2.2,4.7,2.2h33.3c-2.6-9.7-6.4-17.6-11.9-23.7l-23.9,10.1
			C501.2,304,500,306.2,500,309.7z"/>
	</g>
</g>
<g id="Black_Filter" class="st2">
	<rect width="1900" height="400"/>
</g>
</svg>
