<?xml version="1.0" encoding="utf-8"?>
<!-- Generator: Adobe Illustrator 25.2.0, SVG Export Plug-In . SVG Version: 6.00 Build 0)  -->
<svg version="1.1" id="Image" xmlns="http://www.w3.org/2000/svg" xmlns:xlink="http://www.w3.org/1999/xlink" x="0px" y="0px"
	 viewBox="0 0 365 420" style="enable-background:new 0 0 365 420;" xml:space="preserve">
<style type="text/css">
	.st0{display:none;}
	.st1{display:inline;fill:#111A39;}
	.st2{fill:none;stroke:#FFFFFF;stroke-width:8;stroke-miterlimit:10;}
	.st3{fill:none;stroke:#FFFFFF;stroke-width:8.0549;stroke-miterlimit:10;}
	.st4{fill:#E71D4F;}
	.st5{fill:none;stroke:#FFFFFF;stroke-width:4.3393;stroke-miterlimit:10;}
	.st6{fill:none;stroke:#FFFFFF;stroke-width:3.434;stroke-miterlimit:10;}
	.st7{fill:none;stroke:#FFFFFF;stroke-width:2.9717;stroke-miterlimit:10;}
	.st8{fill:none;stroke:#FFFFFF;stroke-width:2.1792;stroke-miterlimit:10;}
	.st9{fill:none;stroke:#FFFFFF;stroke-width:7;stroke-miterlimit:10;}
	.st10{fill:none;stroke:#FFFFFF;stroke-width:3.1038;stroke-miterlimit:10;}
	.st11{fill:none;stroke:#FFFFFF;stroke-width:3.7397;stroke-miterlimit:10;}
	.st12{fill:#FFFFFF;}
</style>
<g id="Background" class="st0">
	<rect class="st1" width="365" height="420"/>
</g>
<path id="Line" class="st2" d="M0.2,420c3-26.6,6.3-53.3,14.7-78.7s22.2-49.7,43.2-66.5c22.6-18.2,51.8-26.5,80.6-31.3
	c28.8-4.8,58.1-6.5,86.3-13.8s56.1-20.9,73.1-44.4c19.1-26.2,22-60.2,26.3-92.3c4.4-32.6,13.4-74.7,44.5-93.1"/>
<path id="Line_1_" class="st2" d="M57.5,274c0,0,19,41,62,32"/>
<path id="Line_2_" class="st2" d="M335.5,41c-12.1-6-25.5-10.3-39.1-9.2c-11.9,1-23.7,6.2-31.2,15.6c-7.2,9-9.8,20.9-9.6,32.3
	c0.3,16.7,4.9,34.2,11.9,49.3"/>
<path id="Line_3_" class="st2" d="M269.5,209c18.7,8.2,34.9,22.3,41.7,42.1c6.5,18.9,3.5,39.9-2.9,58.8
	c-7.1,21.1-16.6,42.4-26.8,62.1"/>
<path id="Line_5_" class="st3" d="M84.5,260c-19.8-6.6-41-15-52.9-33.3c-10.8-16.5-11.1-38.8-2.7-56.6s24.9-31.2,43.4-37.9
	c12.3-4.4,25.4-6.1,37.8-10.5c12.3-4.3,24.4-12.1,29.3-24.2c5.1-12.7,0.7-28.1-9.1-37.7c-22.2-21.6-49.9-9.9-74.7-1.7"/>
<path id="Line_4_" class="st3" d="M255.5,85c0,0-44,5-56-49"/>
<path id="Line_6_" class="st3" d="M55.9,277.5c0,0-33.4,91.5,54.6,102.5"/>
<g id="Circle_07">
	<circle id="Circle_Pink_1_" class="st4" cx="279.6" cy="376.1" r="32.9"/>
	<circle id="Circle_White_1_" class="st5" cx="279.6" cy="376.1" r="26"/>
</g>
<g id="Circle_06">
	<circle id="Circle_Pink_5_" class="st4" cx="112.8" cy="383" r="26"/>
	<circle id="Circle_White_5_" class="st6" cx="112.8" cy="383" r="20.6"/>
</g>
<g id="Circle_05_2_">
	<circle id="Circle_Pink_6_" class="st4" cx="201.3" cy="32.5" r="22.5"/>
	<circle id="Circle_White_6_" class="st7" cx="201.3" cy="32.5" r="17.8"/>
</g>
<g id="Circle_04">
	<circle id="Circle_Pink_3_" class="st4" cx="119.5" cy="306.7" r="16.5"/>
	<circle id="Circle_White_3_" class="st8" cx="119.5" cy="306.7" r="13.1"/>
</g>
<g id="Circle_03_2_">
	<circle id="Circle_Pink" class="st4" cx="182.8" cy="210" r="53"/>
	<circle id="Circle_White" class="st9" cx="182.8" cy="210" r="42"/>
</g>
<g id="Circle_02_1_">
	<circle id="Circle_Pink_4_" class="st4" cx="271" cy="135.5" r="23.5"/>
	<circle id="Circle_White_4_" class="st10" cx="271" cy="135.5" r="18.6"/>
</g>
<g id="Circle_01">
	<ellipse id="Circle_Pink_2_" class="st4" cx="58.1" cy="62" rx="27.6" ry="29"/>
	<ellipse id="Circle_White_2_" class="st11" cx="58.1" cy="62" rx="21.9" ry="23"/>
</g>
<path id="Email_Icon" class="st12" d="M288.4,374.3l-9,2.8l-6.5-6.9l0.5-1.9l6.5,6.9l9-2.8 M289.4,370.4l-15.5-4.1
	c-1.1-0.3-2.2,0.4-2.4,1.4l-3,11.6c-0.3,1.1,0.4,2.2,1.4,2.4l15.5,4.1c1.1,0.3,2.2-0.4,2.4-1.4l3-11.6
	C291.1,371.8,290.5,370.7,289.4,370.4z"/>
<path id="Wifi_Icon" class="st12" d="M121.5,311.3l0.8-3.2c-0.7-0.2-1.4-0.1-2.1,0.2c-0.7,0.3-1.2,0.8-1.6,1.4L121.5,311.3
	 M117.5,302.2c-2.1,0.9-3.7,2.4-4.7,4.3l1.5,0.8c0.8-1.5,2.2-2.8,3.9-3.5s3.6-0.9,5.2-0.5l0.4-1.6
	C121.7,301.1,119.5,301.3,117.5,302.2 M118.8,305.2c-1.4,0.6-2.4,1.6-3.1,2.8l1.5,0.8c0.5-0.9,1.3-1.7,2.3-2.1
	c1-0.5,2.1-0.5,3.1-0.3l0.4-1.6C121.7,304.5,120.2,304.6,118.8,305.2z"/>
<path id="Send_Icon" class="st12" d="M175.3,232.7l29.9-33.4l-44.8,2.3l5.8,12.1l28.3-9.3l-25,16.2L175.3,232.7z"/>
<path id="Headphone_Icon" class="st12" d="M275.8,125.9c-4.6-2-9.8,0-11.9,4.6l-2.8,6.4c-0.7,1.5,0,3.3,1.5,4l2.7,1.2l3.2-7.3
	l-3.7-1.6l0.8-1.8c1.6-3.5,5.7-5.1,9.2-3.6c3.5,1.6,5.1,5.7,3.6,9.2l-0.8,1.8l-3.7-1.6l-3.2,7.3l2.7,1.2c1.5,0.7,3.3,0,4-1.5
	l2.8-6.4C282.4,133.1,280.3,127.9,275.8,125.9z"/>
<path id="_x40__Icon" class="st12" d="M57.5,64.9c0.8,0.2,1.5,0,2.3-0.4c0.7-0.5,1.2-1.1,1.3-1.9c0.2-0.8,0-1.5-0.4-2.3
	c-0.5-0.7-1.1-1.2-1.9-1.3c-0.8-0.2-1.5,0-2.3,0.4c-0.7,0.5-1.2,1.1-1.3,1.9c-0.2,0.8,0,1.5,0.4,2.3C56.1,64.3,56.7,64.7,57.5,64.9
	 M60.4,52.3c2.7,0.6,4.7,2.1,6.2,4.5c1.5,2.3,1.9,4.9,1.3,7.5l-0.3,1.4c-0.2,1-0.8,1.7-1.6,2.3c-0.8,0.5-1.7,0.6-2.7,0.4
	c-1.2-0.3-2-1-2.5-2.1c-1.2,0.7-2.5,1-3.8,0.7c-1.3-0.3-2.4-1.1-3.1-2.2c-0.7-1.2-0.9-2.4-0.6-3.8c0.3-1.3,1.1-2.4,2.2-3.1
	c1.2-0.7,2.4-0.9,3.8-0.6c1.3,0.3,2.4,1.1,3.1,2.2c0.7,1.2,0.9,2.4,0.6,3.8l-0.3,1.4c-0.1,0.4,0,0.8,0.2,1.2
	c0.2,0.4,0.5,0.6,0.9,0.7c0.4,0.1,0.8,0,1.1-0.2c0.4-0.2,0.6-0.6,0.7-1l0.3-1.4c0.5-2.1,0.2-4.1-1-6c-1.2-1.9-2.8-3.1-5-3.6
	c-2.1-0.5-4.1-0.2-6,1s-3.1,2.8-3.6,5s-0.2,4.1,1,6c1.2,1.9,2.8,3.1,5,3.6l4.9,1.1l-0.5,1.9l-4.9-1.1c-2.7-0.6-4.7-2.1-6.2-4.5
	s-1.9-4.9-1.3-7.5c0.6-2.7,2.1-4.7,4.5-6.2S57.7,51.6,60.4,52.3z"/>
<path id="Microphone_Icon" class="st12" d="M197.7,23.7c1.5-0.6,3.3,0.1,3.9,1.7l2.3,5.6c0.6,1.5-0.1,3.3-1.7,3.9s-3.3-0.1-3.9-1.7
	l-2.3-5.6C195.4,26.1,196.2,24.3,197.7,23.7 M207.6,29.4c1.3,3.3,0,6.9-3,8.7l1.2,2.8l-1.9,0.8l-1.2-2.8c-3.3,0.8-6.8-0.9-8.2-4.2
	l1.9-0.8c1,2.6,4,3.8,6.5,2.8c2.6-1,3.8-4,2.8-6.5L207.6,29.4z"/>
<path id="Phone_Icon" class="st12" d="M108.5,390.5l-4.2-9.1l12.7-5.8l4.2,9.1 M124.9,382.9l-4.2-9.1c-0.5-1-1.6-1.4-2.7-1
	l-16.4,7.5c-1,0.5-1.4,1.6-1,2.7l4.2,9.1c0.5,1,1.6,1.4,2.7,1l16.4-7.5C124.9,385.1,125.3,383.9,124.9,382.9z"/>
<g>
</g>
<g>
</g>
<g>
</g>
<g>
</g>
<g>
</g>
<g>
</g>
<g>
</g>
<g>
</g>
<g>
</g>
<g>
</g>
<g>
</g>
<g>
</g>
<g>
</g>
<g>
</g>
<g>
</g>
</svg>
